<svg width="941" height="214" viewBox="0 0 941 214" fill="none" xmlns="http://www.w3.org/2000/svg">
<path d="M438.954 163.937C436.46 162.883 433.78 162.342 431.072 162.346C428.276 162.346 425.614 162.911 423.192 163.937L430.43 151.367C430.495 151.255 430.588 151.163 430.7 151.098C430.811 151.034 430.938 151 431.067 151C431.196 151 431.323 151.034 431.435 151.098C431.546 151.163 431.639 151.255 431.704 151.367L438.947 163.937H438.954Z" fill="white"/>
<path d="M421.278 164.879C418.886 166.207 416.786 168.006 415.106 170.166C413.425 172.326 412.197 174.803 411.497 177.449L406.116 163.708C406.068 163.588 406.053 163.457 406.072 163.329C406.091 163.201 406.143 163.08 406.224 162.979C406.304 162.878 406.41 162.8 406.53 162.752C406.651 162.705 406.781 162.69 406.909 162.709L421.278 164.879Z" fill="white"/>
<path d="M415.136 195.181L400.523 190.66C400.4 190.621 400.288 190.551 400.201 190.456C400.113 190.362 400.051 190.246 400.022 190.12C399.993 189.994 399.997 189.863 400.035 189.739C400.072 189.615 400.142 189.504 400.236 189.415L411.092 179.317C410.911 180.419 410.82 181.534 410.82 182.651C410.82 187.381 412.434 191.733 415.138 195.181H415.136Z" fill="white"/>
<path d="M430.787 202.955L417.975 211.707C417.868 211.78 417.744 211.825 417.615 211.835C417.485 211.845 417.356 211.82 417.239 211.764C417.122 211.708 417.023 211.621 416.95 211.514C416.878 211.406 416.836 211.282 416.827 211.152L415.683 195.829C417.547 198.024 419.859 199.796 422.464 201.024C425.069 202.252 427.907 202.909 430.787 202.949V202.955Z" fill="white"/>
<path d="M446.443 195.892L445.305 211.137C445.289 211.331 445.198 211.511 445.051 211.638C444.903 211.766 444.711 211.83 444.517 211.816C444.388 211.808 444.263 211.765 444.156 211.693L431.37 202.956C434.24 202.918 437.069 202.268 439.668 201.05C442.267 199.832 444.577 198.074 446.443 195.892Z" fill="white"/>
<path d="M461.627 190.614L447.077 195.114C449.848 191.551 451.349 187.165 451.341 182.652C451.341 181.501 451.242 180.371 451.06 179.271L461.91 189.363C462.327 189.75 462.166 190.445 461.627 190.609V190.614Z" fill="white"/>
<path d="M456.049 163.735L450.675 177.472C449.977 174.829 448.754 172.354 447.079 170.194C445.404 168.034 443.311 166.234 440.925 164.9L455.256 162.734C455.383 162.715 455.514 162.73 455.634 162.777C455.755 162.825 455.86 162.903 455.941 163.004C456.021 163.106 456.074 163.226 456.093 163.354C456.112 163.482 456.097 163.613 456.049 163.733V163.735Z" fill="white"/>
<path d="M431.085 207.339C430.374 207.34 429.669 207.481 429.012 207.754C428.355 208.027 427.758 208.427 427.256 208.93C426.753 209.434 426.355 210.032 426.084 210.69C425.812 211.348 425.673 212.052 425.674 212.764H436.502C436.503 212.052 436.364 211.348 436.093 210.69C435.821 210.032 435.423 209.434 434.921 208.93C434.418 208.427 433.821 208.027 433.164 207.754C432.507 207.481 431.803 207.34 431.091 207.339H431.085Z" fill="white"/>
<path d="M450.868 198.449C449.972 199.575 449.559 201.01 449.72 202.44C449.88 203.87 450.601 205.178 451.724 206.077L458.472 197.592C457.916 197.148 457.279 196.817 456.595 196.62C455.912 196.423 455.196 196.362 454.49 196.442C453.783 196.522 453.099 196.74 452.476 197.085C451.854 197.429 451.306 197.894 450.864 198.45H450.868V198.449Z" fill="white"/>
<path d="M455.301 177.466C455.458 178.16 455.75 178.817 456.16 179.398C456.571 179.979 457.092 180.473 457.694 180.853C458.297 181.232 458.968 181.488 459.669 181.608C460.371 181.727 461.089 181.706 461.782 181.548L459.372 170.963C458.678 171.123 458.022 171.417 457.442 171.83C456.861 172.243 456.368 172.766 455.99 173.369C455.612 173.973 455.357 174.645 455.239 175.347C455.12 176.049 455.142 176.768 455.301 177.462V177.466Z" fill="white"/>
<path d="M442.035 160.867C442.675 161.177 443.371 161.357 444.082 161.396C444.792 161.436 445.504 161.336 446.175 161.1C446.847 160.864 447.465 160.498 447.995 160.023C448.524 159.547 448.955 158.972 449.262 158.33L439.508 153.62C438.884 154.917 438.799 156.409 439.274 157.767C439.749 159.126 440.743 160.241 442.039 160.867H442.033H442.035Z" fill="white"/>
<path d="M419.895 160.867C421.19 160.24 422.183 159.125 422.657 157.766C423.13 156.408 423.046 154.916 422.421 153.62L412.666 158.33C412.974 158.972 413.405 159.546 413.935 160.021C414.465 160.496 415.084 160.861 415.755 161.097C416.427 161.332 417.138 161.432 417.848 161.392C418.559 161.352 419.254 161.172 419.895 160.863V160.867Z" fill="white"/>
<path d="M406.992 177.466C407.312 176.064 407.063 174.592 406.298 173.374C405.534 172.156 404.317 171.291 402.915 170.97L400.509 181.552C401.203 181.71 401.922 181.73 402.623 181.61C403.325 181.49 403.996 181.233 404.598 180.854C405.2 180.474 405.722 179.98 406.133 179.398C406.543 178.817 406.835 178.16 406.992 177.466Z" fill="white"/>
<path d="M404.44 197.592L411.193 206.077C412.316 205.178 413.037 203.87 413.197 202.44C413.358 201.01 412.944 199.575 412.048 198.449C411.605 197.892 411.057 197.428 410.435 197.084C409.813 196.74 409.129 196.522 408.422 196.442C407.715 196.362 407 196.423 406.316 196.62C405.633 196.817 404.995 197.148 404.44 197.592Z" fill="white"/>
<path d="M492.814 166.767V182.305H511.002V167.668H519.29V202.51H511.003V189.713H492.814V202.51H484.526V169.011L492.814 166.767ZM534.295 195.098H559.65L557.411 202.506H526.012V167.661H559.654L557.415 175.071H534.3V181.4H555.845V188.808H534.3V195.096L534.295 195.098ZM572.952 167.664V195.098H597.409L595.17 202.506H564.665V167.661H572.952V167.664ZM609.281 167.664V202.507H600.995V167.663H609.281V167.664ZM644.042 167.664H652.329V188.68C652.329 198.829 644.041 203.27 633.336 203.27C622.633 203.27 614.924 198.509 614.924 188.68V169.011L623.212 166.767V188.678C623.212 193.794 626.614 195.729 633.739 195.729C640.863 195.729 644.042 193.663 644.042 188.678V167.661V167.664ZM656.541 178.263C656.541 172.921 660.752 167.664 668.994 167.664H692.645L690.408 175.072H669.082C666.529 175.072 665.272 176.687 665.272 178.258C665.272 179.827 666.573 181.402 669.082 181.402H681.085C689.191 181.402 693.404 186.654 693.404 192.002C693.404 197.348 689.415 202.506 681.085 202.506H656.541L658.78 195.098H680.997C683.508 195.098 684.807 193.617 684.807 192.002C684.807 190.385 683.554 188.768 680.997 188.768H668.994C660.616 188.768 656.541 183.516 656.541 178.263Z" fill="white"/>
<path d="M32.853 156.747L24.0941 188.587C23.6909 190.052 21.4734 189.768 21.4734 188.251V155.29C21.4734 152.179 24.0649 149.656 27.2617 149.656C31.0672 149.656 33.8372 153.169 32.853 156.747Z" fill="white"/>
<path d="M48.682 173.004L28.1475 192.159C27.075 193.16 25.4265 191.878 26.1551 190.61L40.1059 166.335C41.7736 163.433 45.6519 162.669 48.3045 164.72C50.9669 166.778 51.1459 170.705 48.682 173.004Z" fill="white"/>
<path d="M46.0888 197.271L30.5057 197.271C29.129 197.271 28.6909 195.355 29.9222 194.72L43.8602 187.526C47.1736 185.816 51.0722 188.303 51.0722 192.127C51.0722 194.968 48.8411 197.271 46.0888 197.271Z" fill="white"/>
<path fill-rule="evenodd" clip-rule="evenodd" d="M9.25933 149.656C11.7464 149.656 13.7626 151.673 13.7626 154.16L13.7626 209.496C13.7626 211.983 11.7464 214 9.25933 214C6.77226 214 4.75609 211.983 4.75609 209.496L4.75609 154.16C4.75609 151.673 6.77226 149.656 9.25933 149.656Z" fill="white"/>
<path fill-rule="evenodd" clip-rule="evenodd" d="M51.0686 209.496C51.0686 211.984 49.0524 214 46.5654 214H9.25278C6.76571 214 4.74954 211.984 4.74954 209.496C4.74954 207.009 6.76571 204.992 9.25278 204.992H46.5654C49.0524 204.992 51.0686 207.009 51.0686 209.496Z" fill="white"/>
<path d="M71.2541 200.827V168.524H77.1058V195.921H91.3329V200.827H71.2541ZM96.1594 200.827V176.599H101.869V200.827H96.1594ZM99.0301 173.161C98.1258 173.161 97.3477 172.861 96.6957 172.262C96.0438 171.652 95.7178 170.921 95.7178 170.069C95.7178 169.207 96.0438 168.476 96.6957 167.877C97.3477 167.267 98.1258 166.962 99.0301 166.962C99.9449 166.962 100.723 167.267 101.364 167.877C102.016 168.476 102.342 169.207 102.342 170.069C102.342 170.921 102.016 171.652 101.364 172.262C100.723 172.861 99.9449 173.161 99.0301 173.161ZM118.277 210.416C116.226 210.416 114.465 210.138 112.993 209.58C111.521 209.034 110.338 208.298 109.444 207.372C108.55 206.447 107.93 205.422 107.583 204.297L112.725 203.051C112.956 203.524 113.293 203.992 113.734 204.454C114.176 204.927 114.77 205.317 115.517 205.621C116.274 205.937 117.225 206.095 118.372 206.095C119.991 206.095 121.332 205.7 122.394 204.912C123.456 204.134 123.987 202.851 123.987 201.063V196.473H123.703C123.408 197.062 122.977 197.667 122.409 198.287C121.852 198.908 121.111 199.428 120.185 199.849C119.271 200.269 118.119 200.48 116.731 200.48C114.87 200.48 113.182 200.043 111.668 199.17C110.164 198.287 108.966 196.973 108.072 195.227C107.189 193.471 106.747 191.273 106.747 188.634C106.747 185.974 107.189 183.729 108.072 181.899C108.966 180.059 110.17 178.666 111.684 177.719C113.198 176.762 114.886 176.284 116.747 176.284C118.166 176.284 119.334 176.526 120.249 177.01C121.174 177.483 121.91 178.056 122.457 178.729C123.004 179.391 123.419 180.017 123.703 180.606H124.018V176.599H129.649V201.221C129.649 203.292 129.155 205.006 128.166 206.363C127.178 207.719 125.827 208.734 124.113 209.407C122.399 210.08 120.454 210.416 118.277 210.416ZM118.324 196C119.533 196 120.564 195.706 121.416 195.117C122.267 194.528 122.914 193.681 123.356 192.577C123.797 191.473 124.018 190.148 124.018 188.603C124.018 187.078 123.797 185.742 123.356 184.596C122.925 183.45 122.283 182.562 121.431 181.931C120.59 181.289 119.555 180.969 118.324 180.969C117.052 180.969 115.99 181.3 115.138 181.962C114.286 182.625 113.645 183.534 113.214 184.691C112.783 185.837 112.567 187.141 112.567 188.603C112.567 190.085 112.783 191.384 113.214 192.498C113.655 193.603 114.302 194.465 115.154 195.085C116.016 195.695 117.073 196 118.324 196ZM141.211 186.631V200.827H135.501V168.524H141.084V180.716H141.368C141.936 179.349 142.814 178.271 144.002 177.483C145.201 176.684 146.726 176.284 148.577 176.284C150.259 176.284 151.726 176.636 152.977 177.341C154.228 178.045 155.196 179.076 155.879 180.432C156.573 181.789 156.92 183.445 156.92 185.401V200.827H151.211V186.284C151.211 184.654 150.79 183.387 149.949 182.483C149.118 181.568 147.951 181.11 146.447 181.11C145.438 181.11 144.533 181.331 143.734 181.773C142.946 182.204 142.325 182.83 141.873 183.65C141.431 184.47 141.211 185.464 141.211 186.631ZM174.838 176.599V181.016H160.911V176.599H174.838ZM164.349 170.795H170.059V193.539C170.059 194.307 170.175 194.896 170.406 195.306C170.648 195.706 170.963 195.979 171.353 196.126C171.742 196.273 172.173 196.347 172.646 196.347C173.003 196.347 173.329 196.321 173.624 196.268C173.929 196.216 174.16 196.168 174.318 196.126L175.28 200.59C174.975 200.695 174.539 200.811 173.971 200.937C173.414 201.063 172.73 201.137 171.92 201.158C170.49 201.2 169.202 200.984 168.056 200.511C166.91 200.027 166 199.281 165.327 198.271C164.665 197.262 164.339 196 164.349 194.486V170.795ZM193.084 200.827V168.524H203.998C206.533 168.524 208.604 168.981 210.213 169.896C211.832 170.8 213.031 172.025 213.809 173.571C214.587 175.117 214.976 176.841 214.976 178.745C214.976 180.648 214.587 182.378 213.809 183.934C213.041 185.49 211.853 186.731 210.244 187.656C208.636 188.571 206.575 189.028 204.061 189.028H196.238V185.558H203.935C205.67 185.558 207.064 185.259 208.115 184.659C209.167 184.06 209.929 183.25 210.402 182.23C210.886 181.2 211.128 180.038 211.128 178.745C211.128 177.451 210.886 176.295 210.402 175.275C209.929 174.255 209.161 173.455 208.099 172.877C207.037 172.288 205.628 171.994 203.872 171.994H196.995V200.827H193.084ZM220.773 200.827V176.599H224.369V180.259H224.621C225.063 179.06 225.862 178.087 227.019 177.341C228.176 176.594 229.479 176.221 230.931 176.221C231.204 176.221 231.546 176.226 231.956 176.237C232.366 176.247 232.676 176.263 232.886 176.284V180.069C232.76 180.038 232.471 179.991 232.019 179.928C231.577 179.854 231.109 179.817 230.615 179.817C229.437 179.817 228.386 180.064 227.46 180.558C226.546 181.042 225.82 181.715 225.284 182.577C224.758 183.429 224.495 184.402 224.495 185.495V200.827H220.773ZM246.404 201.331C244.217 201.331 242.297 200.811 240.647 199.77C239.006 198.729 237.723 197.272 236.798 195.401C235.883 193.529 235.426 191.342 235.426 188.839C235.426 186.316 235.883 184.113 236.798 182.23C237.723 180.348 239.006 178.887 240.647 177.846C242.297 176.804 244.217 176.284 246.404 176.284C248.591 176.284 250.505 176.804 252.145 177.846C253.796 178.887 255.079 180.348 255.994 182.23C256.919 184.113 257.382 186.316 257.382 188.839C257.382 191.342 256.919 193.529 255.994 195.401C255.079 197.272 253.796 198.729 252.145 199.77C250.505 200.811 248.591 201.331 246.404 201.331ZM246.404 197.987C248.065 197.987 249.432 197.562 250.505 196.71C251.577 195.858 252.371 194.738 252.886 193.35C253.402 191.962 253.659 190.459 253.659 188.839C253.659 187.22 253.402 185.711 252.886 184.312C252.371 182.914 251.577 181.783 250.505 180.921C249.432 180.059 248.065 179.628 246.404 179.628C244.742 179.628 243.375 180.059 242.303 180.921C241.23 181.783 240.436 182.914 239.921 184.312C239.406 185.711 239.148 187.22 239.148 188.839C239.148 190.459 239.406 191.962 239.921 193.35C240.436 194.738 241.23 195.858 242.303 196.71C243.375 197.562 244.742 197.987 246.404 197.987ZM273.6 176.599V179.754H261.045V176.599H273.6ZM264.704 170.795H268.427V193.886C268.427 194.938 268.579 195.727 268.884 196.252C269.199 196.768 269.599 197.115 270.083 197.293C270.577 197.462 271.097 197.546 271.644 197.546C272.054 197.546 272.391 197.525 272.654 197.483C272.917 197.43 273.127 197.388 273.285 197.357L274.042 200.7C273.789 200.795 273.437 200.89 272.985 200.984C272.533 201.089 271.96 201.142 271.266 201.142C270.214 201.142 269.184 200.916 268.174 200.464C267.175 200.012 266.345 199.323 265.682 198.398C265.03 197.472 264.704 196.305 264.704 194.896V170.795ZM288.781 201.331C286.594 201.331 284.675 200.811 283.024 199.77C281.384 198.729 280.101 197.272 279.176 195.401C278.261 193.529 277.803 191.342 277.803 188.839C277.803 186.316 278.261 184.113 279.176 182.23C280.101 180.348 281.384 178.887 283.024 177.846C284.675 176.804 286.594 176.284 288.781 176.284C290.969 176.284 292.882 176.804 294.523 177.846C296.174 178.887 297.456 180.348 298.371 182.23C299.297 184.113 299.759 186.316 299.759 188.839C299.759 191.342 299.297 193.529 298.371 195.401C297.456 197.272 296.174 198.729 294.523 199.77C292.882 200.811 290.969 201.331 288.781 201.331ZM288.781 197.987C290.443 197.987 291.81 197.562 292.882 196.71C293.955 195.858 294.749 194.738 295.264 193.35C295.779 191.962 296.037 190.459 296.037 188.839C296.037 187.22 295.779 185.711 295.264 184.312C294.749 182.914 293.955 181.783 292.882 180.921C291.81 180.059 290.443 179.628 288.781 179.628C287.12 179.628 285.753 180.059 284.68 180.921C283.608 181.783 282.814 182.914 282.299 184.312C281.783 185.711 281.526 187.22 281.526 188.839C281.526 190.459 281.783 191.962 282.299 193.35C282.814 194.738 283.608 195.858 284.68 196.71C285.753 197.562 287.12 197.987 288.781 197.987ZM315.284 201.331C313.012 201.331 311.057 200.795 309.416 199.722C307.776 198.65 306.514 197.172 305.631 195.29C304.747 193.408 304.306 191.258 304.306 188.839C304.306 186.379 304.758 184.207 305.662 182.325C306.577 180.432 307.849 178.955 309.479 177.893C311.12 176.82 313.033 176.284 315.221 176.284C316.924 176.284 318.459 176.599 319.826 177.23C321.193 177.861 322.313 178.745 323.186 179.88C324.059 181.016 324.6 182.341 324.811 183.855H321.088C320.804 182.751 320.173 181.773 319.195 180.921C318.228 180.059 316.924 179.628 315.284 179.628C313.833 179.628 312.56 180.006 311.467 180.763C310.384 181.51 309.537 182.567 308.927 183.934C308.328 185.29 308.028 186.883 308.028 188.713C308.028 190.585 308.323 192.215 308.911 193.603C309.511 194.991 310.352 196.068 311.435 196.836C312.529 197.604 313.812 197.987 315.284 197.987C316.251 197.987 317.129 197.819 317.918 197.483C318.706 197.146 319.374 196.663 319.921 196.032C320.468 195.401 320.857 194.644 321.088 193.76H324.811C324.6 195.19 324.08 196.478 323.249 197.625C322.429 198.76 321.34 199.665 319.984 200.338C318.638 201 317.071 201.331 315.284 201.331ZM340.094 201.331C337.907 201.331 335.988 200.811 334.337 199.77C332.697 198.729 331.414 197.272 330.489 195.401C329.574 193.529 329.117 191.342 329.117 188.839C329.117 186.316 329.574 184.113 330.489 182.23C331.414 180.348 332.697 178.887 334.337 177.846C335.988 176.804 337.907 176.284 340.094 176.284C342.282 176.284 344.195 176.804 345.836 177.846C347.487 178.887 348.769 180.348 349.684 182.23C350.61 184.113 351.072 186.316 351.072 188.839C351.072 191.342 350.61 193.529 349.684 195.401C348.769 197.272 347.487 198.729 345.836 199.77C344.195 200.811 342.282 201.331 340.094 201.331ZM340.094 197.987C341.756 197.987 343.123 197.562 344.195 196.71C345.268 195.858 346.062 194.738 346.577 193.35C347.092 191.962 347.35 190.459 347.35 188.839C347.35 187.22 347.092 185.711 346.577 184.312C346.062 182.914 345.268 181.783 344.195 180.921C343.123 180.059 341.756 179.628 340.094 179.628C338.433 179.628 337.066 180.059 335.993 180.921C334.921 181.783 334.127 182.914 333.612 184.312C333.097 185.711 332.839 187.22 332.839 188.839C332.839 190.459 333.097 191.962 333.612 193.35C334.127 194.738 334.921 195.858 335.993 196.71C337.066 197.562 338.433 197.987 340.094 197.987ZM360.477 168.524V200.827H356.754V168.524H360.477Z" fill="white"/>
<path d="M73.1664 106.513V119H9.72623V106.513H73.1664ZM71.7231 37.3624L15.562 119H5.01999V109.023L61.3694 27.6361H71.7231V37.3624ZM65.8874 27.6361V40.1861H5.39649V27.6361H65.8874ZM101.311 27.6361V119H85.5607V27.6361H101.311ZM156.217 27.6361L119.195 71.6238L98.1107 93.9628L95.3497 78.3381L110.41 59.7641L137.016 27.6361H156.217ZM139.275 119L109.217 75.7026L120.073 64.9723L157.974 119H139.275ZM252.726 89.2565H268.414C267.912 95.2387 266.239 100.572 263.394 105.258C260.549 109.901 256.554 113.562 251.409 116.239C246.263 118.916 240.009 120.255 232.647 120.255C226.999 120.255 221.916 119.251 217.398 117.243C212.88 115.193 209.011 112.307 205.79 108.584C202.568 104.819 200.1 100.28 198.385 94.9668C196.712 89.654 195.875 83.7136 195.875 77.1458V69.5531C195.875 62.9853 196.733 57.0449 198.448 51.7321C200.205 46.4193 202.715 41.8804 205.978 38.1154C209.241 34.3086 213.152 31.4011 217.712 29.3931C222.314 27.3851 227.48 26.3811 233.211 26.3811C240.49 26.3811 246.64 27.7198 251.66 30.3971C256.68 33.0745 260.57 36.7767 263.331 41.5039C266.134 46.231 267.849 51.6484 268.477 57.7561H252.789C252.371 53.8238 251.451 50.4562 250.028 47.6534C248.648 44.8505 246.598 42.717 243.879 41.2529C241.16 39.7469 237.604 38.9939 233.211 38.9939C229.614 38.9939 226.476 39.6632 223.799 41.0019C221.121 42.3405 218.883 44.3067 217.085 46.9004C215.286 49.494 213.926 52.6943 213.006 56.5011C212.127 60.2661 211.688 64.5749 211.688 69.4276V77.1458C211.688 81.7475 212.085 85.9308 212.88 89.6958C213.717 93.419 214.972 96.6192 216.645 99.2965C218.36 101.974 220.536 104.045 223.171 105.509C225.807 106.973 228.965 107.705 232.647 107.705C237.123 107.705 240.741 106.994 243.502 105.572C246.305 104.149 248.418 102.078 249.84 99.3593C251.304 96.5983 252.266 93.2307 252.726 89.2565ZM277.043 85.8053V84.3621C277.043 79.4676 277.754 74.9287 279.177 70.7453C280.599 66.5202 282.649 62.8598 285.326 59.7641C288.045 56.6266 291.35 54.2003 295.241 52.4851C299.173 50.7281 303.607 49.8496 308.544 49.8496C313.522 49.8496 317.956 50.7281 321.847 52.4851C325.779 54.2003 329.105 56.6266 331.824 59.7641C334.543 62.8598 336.614 66.5202 338.036 70.7453C339.459 74.9287 340.17 79.4676 340.17 84.3621V85.8053C340.17 90.6998 339.459 95.2387 338.036 99.422C336.614 103.605 334.543 107.266 331.824 110.403C329.105 113.499 325.8 115.925 321.91 117.682C318.019 119.397 313.606 120.255 308.669 120.255C303.691 120.255 299.236 119.397 295.304 117.682C291.413 115.925 288.108 113.499 285.389 110.403C282.67 107.266 280.599 103.605 279.177 99.422C277.754 95.2387 277.043 90.6998 277.043 85.8053ZM292.166 84.3621V85.8053C292.166 88.8591 292.48 91.7456 293.107 94.4648C293.735 97.184 294.718 99.5684 296.057 101.618C297.395 103.668 299.11 105.279 301.202 106.45C303.294 107.621 305.783 108.207 308.669 108.207C311.472 108.207 313.898 107.621 315.948 106.45C318.04 105.279 319.755 103.668 321.094 101.618C322.432 99.5684 323.416 97.184 324.043 94.4648C324.712 91.7456 325.047 88.8591 325.047 85.8053V84.3621C325.047 81.3501 324.712 78.5054 324.043 75.8281C323.416 73.1089 322.412 70.7035 321.031 68.6118C319.692 66.5202 317.977 64.8887 315.886 63.7173C313.836 62.5042 311.388 61.8976 308.544 61.8976C305.699 61.8976 303.231 62.5042 301.139 63.7173C299.089 64.8887 297.395 66.5202 296.057 68.6118C294.718 70.7035 293.735 73.1089 293.107 75.8281C292.48 78.5054 292.166 81.3501 292.166 84.3621ZM366.683 64.9096V119H351.56V51.1046H365.804L366.683 64.9096ZM364.236 82.5423L359.09 82.4796C359.09 77.7942 359.676 73.4645 360.847 69.4903C362.018 65.5162 363.734 62.0649 365.993 59.1366C368.252 56.1664 371.054 53.8865 374.401 52.2969C377.79 50.6654 381.701 49.8496 386.135 49.8496C389.231 49.8496 392.055 50.3098 394.607 51.2301C397.2 52.1086 399.438 53.51 401.321 55.4344C403.245 57.3587 404.709 59.8268 405.713 62.8388C406.759 65.8508 407.282 69.4903 407.282 73.7573V119H392.159V75.0751C392.159 71.7702 391.657 69.1766 390.653 67.2941C389.691 65.4116 388.29 64.0729 386.449 63.2781C384.65 62.4414 382.496 62.0231 379.986 62.0231C377.141 62.0231 374.715 62.5669 372.707 63.6546C370.741 64.7423 369.13 66.2273 367.875 68.1098C366.62 69.9923 365.7 72.1677 365.114 74.6358C364.528 77.104 364.236 79.7395 364.236 82.5423ZM406.341 78.5263L399.25 80.0951C399.25 75.9954 399.815 72.1258 400.944 68.4863C402.116 64.805 403.81 61.5838 406.027 58.8228C408.286 56.02 411.068 53.8238 414.373 52.2341C417.678 50.6444 421.463 49.8496 425.73 49.8496C429.203 49.8496 432.298 50.3307 435.017 51.2929C437.778 52.2132 440.121 53.6774 442.045 55.6854C443.97 57.6933 445.434 60.3079 446.438 63.5291C447.442 66.7084 447.944 70.5571 447.944 75.0751V119H432.758V75.0123C432.758 71.582 432.256 68.9256 431.252 67.0431C430.29 65.1606 428.91 63.8638 427.111 63.1526C425.312 62.3996 423.158 62.0231 420.648 62.0231C418.305 62.0231 416.234 62.4623 414.435 63.3408C412.678 64.1775 411.193 65.3698 409.98 66.9176C408.767 68.4236 407.847 70.1597 407.219 72.1258C406.634 74.092 406.341 76.2255 406.341 78.5263ZM477.406 64.1566V145.104H462.284V51.1046H476.214L477.406 64.1566ZM521.645 84.4248V85.7426C521.645 90.6789 521.059 95.2596 519.888 99.4848C518.758 103.668 517.064 107.329 514.805 110.466C512.588 113.562 509.848 115.967 506.585 117.682C503.322 119.397 499.557 120.255 495.29 120.255C491.065 120.255 487.363 119.481 484.183 117.933C481.046 116.344 478.389 114.106 476.214 111.219C474.039 108.333 472.282 104.944 470.943 101.054C469.646 97.1212 468.726 92.8124 468.182 88.127V83.0443C468.726 78.0661 469.646 73.5482 470.943 69.4903C472.282 65.4325 474.039 61.9394 476.214 59.0111C478.389 56.0828 481.046 53.8238 484.183 52.2341C487.321 50.6444 490.981 49.8496 495.164 49.8496C499.431 49.8496 503.217 50.6863 506.522 52.3596C509.827 53.9911 512.609 56.3338 514.868 59.3876C517.127 62.3996 518.821 66.0391 519.951 70.3061C521.08 74.5312 521.645 79.2375 521.645 84.4248ZM506.522 85.7426V84.4248C506.522 81.2873 506.229 78.3799 505.644 75.7026C505.058 72.9834 504.138 70.5989 502.883 68.5491C501.628 66.4993 500.017 64.9096 498.051 63.7801C496.127 62.6088 493.805 62.0231 491.086 62.0231C488.408 62.0231 486.108 62.4833 484.183 63.4036C482.259 64.2821 480.648 65.5162 479.351 67.1058C478.055 68.6955 477.051 70.5571 476.34 72.6906C475.628 74.7822 475.126 77.0622 474.834 79.5303V91.7038C475.336 94.7158 476.193 97.4768 477.406 99.9868C478.619 102.497 480.335 104.505 482.552 106.011C484.811 107.475 487.697 108.207 491.211 108.207C493.93 108.207 496.252 107.621 498.176 106.45C500.101 105.279 501.67 103.668 502.883 101.618C504.138 99.5266 505.058 97.1212 505.644 94.402C506.229 91.6829 506.522 88.7964 506.522 85.7426ZM548.409 64.0311V119H533.286V51.1046H547.719L548.409 64.0311ZM569.179 50.6654L569.054 64.7213C568.133 64.554 567.129 64.4285 566.042 64.3448C564.996 64.2612 563.95 64.2193 562.904 64.2193C560.311 64.2193 558.031 64.5958 556.065 65.3488C554.098 66.06 552.446 67.1058 551.107 68.4863C549.81 69.825 548.806 71.4565 548.095 73.3808C547.384 75.3052 546.966 77.4596 546.84 79.8441L543.389 80.0951C543.389 75.8281 543.807 71.8748 544.644 68.2353C545.481 64.5958 546.736 61.3956 548.409 58.6346C550.124 55.8736 552.258 53.7192 554.81 52.1714C557.403 50.6235 560.394 49.8496 563.783 49.8496C564.703 49.8496 565.686 49.9333 566.732 50.1006C567.82 50.2679 568.635 50.4562 569.179 50.6654ZM606.046 120.255C601.026 120.255 596.487 119.439 592.429 117.808C588.413 116.134 584.983 113.813 582.138 110.843C579.336 107.872 577.181 104.379 575.675 100.363C574.169 96.3473 573.416 92.0175 573.416 87.3741V84.8641C573.416 79.5512 574.19 74.7404 575.738 70.4316C577.286 66.1228 579.44 62.4414 582.201 59.3876C584.962 56.2919 588.225 53.9284 591.99 52.2969C595.755 50.6654 599.834 49.8496 604.226 49.8496C609.079 49.8496 613.325 50.6654 616.965 52.2969C620.604 53.9284 623.616 56.2292 626.001 59.1993C628.427 62.1277 630.226 65.6208 631.397 69.6786C632.61 73.7364 633.217 78.2126 633.217 83.1071V89.5703H580.758V78.7146H618.282V77.5223C618.199 74.8032 617.655 72.2513 616.651 69.8668C615.689 67.4823 614.204 65.558 612.196 64.0938C610.188 62.6297 607.51 61.8976 604.164 61.8976C601.654 61.8976 599.415 62.4414 597.449 63.5291C595.525 64.5749 593.914 66.1018 592.618 68.1098C591.321 70.1178 590.317 72.5442 589.606 75.3888C588.936 78.1916 588.602 81.3501 588.602 84.8641V87.3741C588.602 90.3442 588.999 93.1052 589.794 95.657C590.631 98.167 591.844 100.363 593.433 102.246C595.023 104.128 596.947 105.613 599.206 106.701C601.465 107.747 604.038 108.27 606.925 108.27C610.564 108.27 613.806 107.538 616.651 106.074C619.495 104.609 621.964 102.539 624.055 99.8613L632.025 107.58C630.56 109.713 628.657 111.763 626.314 113.729C623.972 115.653 621.106 117.222 617.718 118.435C614.371 119.648 610.48 120.255 606.046 120.255ZM681.818 100.614C681.818 99.1083 681.441 97.7487 680.688 96.5355C679.935 95.2805 678.492 94.151 676.359 93.147C674.267 92.143 671.171 91.2227 667.072 90.386C663.474 89.5912 660.169 88.65 657.157 87.5623C654.187 86.4328 651.635 85.0732 649.502 83.4836C647.368 81.8939 645.716 80.0114 644.544 77.8361C643.373 75.6607 642.787 73.1507 642.787 70.3061C642.787 67.5451 643.394 64.9305 644.607 62.4623C645.82 59.9942 647.556 57.8188 649.815 55.9364C652.074 54.0539 654.814 52.5688 658.036 51.4811C661.299 50.3934 664.938 49.8496 668.954 49.8496C674.643 49.8496 679.517 50.8118 683.575 52.7361C687.674 54.6186 690.812 57.1913 692.987 60.4543C695.163 63.6755 696.25 67.315 696.25 71.3728H681.128C681.128 69.574 680.667 67.9007 679.747 66.3528C678.869 64.7632 677.53 63.4873 675.731 62.5251C673.932 61.5211 671.673 61.0191 668.954 61.0191C666.36 61.0191 664.206 61.4374 662.491 62.2741C660.818 63.0689 659.563 64.1148 658.726 65.4116C657.931 66.7084 657.534 68.1307 657.534 69.6786C657.534 70.8081 657.743 71.833 658.161 72.7533C658.621 73.6318 659.374 74.4476 660.42 75.2006C661.466 75.9117 662.888 76.5811 664.687 77.2086C666.528 77.8361 668.829 78.4426 671.59 79.0283C676.777 80.116 681.232 81.5174 684.955 83.2326C688.72 84.9059 691.607 87.0812 693.615 89.7585C695.623 92.394 696.627 95.7407 696.627 99.7985C696.627 102.811 695.978 105.572 694.682 108.082C693.427 110.55 691.586 112.704 689.16 114.545C686.733 116.344 683.826 117.745 680.437 118.749C677.091 119.753 673.326 120.255 669.142 120.255C662.993 120.255 657.785 119.167 653.518 116.992C649.251 114.775 646.009 111.951 643.791 108.521C641.616 105.049 640.528 101.451 640.528 97.7278H655.149C655.316 100.531 656.09 102.769 657.471 104.442C658.893 106.074 660.65 107.266 662.742 108.019C664.875 108.73 667.072 109.086 669.331 109.086C672.05 109.086 674.33 108.73 676.17 108.019C678.011 107.266 679.412 106.262 680.375 105.007C681.337 103.71 681.818 102.246 681.818 100.614ZM746.671 100.614C746.671 99.1083 746.295 97.7487 745.542 96.5355C744.789 95.2805 743.345 94.151 741.212 93.147C739.12 92.143 736.025 91.2227 731.925 90.386C728.327 89.5912 725.022 88.65 722.01 87.5623C719.04 86.4328 716.488 85.0732 714.355 83.4836C712.221 81.8939 710.569 80.0114 709.398 77.8361C708.226 75.6607 707.641 73.1507 707.641 70.3061C707.641 67.5451 708.247 64.9305 709.46 62.4623C710.674 59.9942 712.41 57.8188 714.669 55.9364C716.928 54.0539 719.668 52.5688 722.889 51.4811C726.152 50.3934 729.791 49.8496 733.807 49.8496C739.497 49.8496 744.37 50.8118 748.428 52.7361C752.528 54.6186 755.665 57.1913 757.841 60.4543C760.016 63.6755 761.104 67.315 761.104 71.3728H745.981C745.981 69.574 745.521 67.9007 744.6 66.3528C743.722 64.7632 742.383 63.4873 740.584 62.5251C738.786 61.5211 736.527 61.0191 733.807 61.0191C731.214 61.0191 729.059 61.4374 727.344 62.2741C725.671 63.0689 724.416 64.1148 723.579 65.4116C722.784 66.7084 722.387 68.1307 722.387 69.6786C722.387 70.8081 722.596 71.833 723.014 72.7533C723.475 73.6318 724.228 74.4476 725.273 75.2006C726.319 75.9117 727.742 76.5811 729.54 77.2086C731.381 77.8361 733.682 78.4426 736.443 79.0283C741.63 80.116 746.085 81.5174 749.809 83.2326C753.574 84.9059 756.46 87.0812 758.468 89.7585C760.476 92.394 761.48 95.7407 761.48 99.7985C761.48 102.811 760.832 105.572 759.535 108.082C758.28 110.55 756.439 112.704 754.013 114.545C751.586 116.344 748.679 117.745 745.291 118.749C741.944 119.753 738.179 120.255 733.996 120.255C727.846 120.255 722.638 119.167 718.371 116.992C714.104 114.775 710.862 111.951 708.645 108.521C706.469 105.049 705.382 101.451 705.382 97.7278H720.002C720.17 100.531 720.944 102.769 722.324 104.442C723.746 106.074 725.503 107.266 727.595 108.019C729.729 108.73 731.925 109.086 734.184 109.086C736.903 109.086 739.183 108.73 741.024 108.019C742.864 107.266 744.266 106.262 745.228 105.007C746.19 103.71 746.671 102.246 746.671 100.614ZM789.625 51.1046V119H774.439V51.1046H789.625ZM773.435 33.2836C773.435 30.9828 774.188 29.0794 775.694 27.5734C777.242 26.0256 779.376 25.2516 782.095 25.2516C784.772 25.2516 786.885 26.0256 788.432 27.5734C789.98 29.0794 790.754 30.9828 790.754 33.2836C790.754 35.5426 789.98 37.4251 788.432 38.9311C786.885 40.4371 784.772 41.1901 782.095 41.1901C779.376 41.1901 777.242 40.4371 775.694 38.9311C774.188 37.4251 773.435 35.5426 773.435 33.2836ZM802.019 85.8053V84.3621C802.019 79.4676 802.73 74.9287 804.153 70.7453C805.575 66.5202 807.625 62.8598 810.302 59.7641C813.021 56.6266 816.326 54.2003 820.216 52.4851C824.149 50.7281 828.583 49.8496 833.519 49.8496C838.498 49.8496 842.932 50.7281 846.822 52.4851C850.755 54.2003 854.081 56.6266 856.8 59.7641C859.519 62.8598 861.59 66.5202 863.012 70.7453C864.434 74.9287 865.145 79.4676 865.145 84.3621V85.8053C865.145 90.6998 864.434 95.2387 863.012 99.422C861.59 103.605 859.519 107.266 856.8 110.403C854.081 113.499 850.776 115.925 846.885 117.682C842.995 119.397 838.581 120.255 833.645 120.255C828.667 120.255 824.212 119.397 820.279 117.682C816.389 115.925 813.084 113.499 810.365 110.403C807.646 107.266 805.575 103.605 804.153 99.422C802.73 95.2387 802.019 90.6998 802.019 85.8053ZM817.142 84.3621V85.8053C817.142 88.8591 817.455 91.7456 818.083 94.4648C818.71 97.184 819.694 99.5684 821.032 101.618C822.371 103.668 824.086 105.279 826.178 106.45C828.269 107.621 830.758 108.207 833.645 108.207C836.448 108.207 838.874 107.621 840.924 106.45C843.016 105.279 844.731 103.668 846.069 101.618C847.408 99.5684 848.391 97.184 849.019 94.4648C849.688 91.7456 850.023 88.8591 850.023 85.8053V84.3621C850.023 81.3501 849.688 78.5054 849.019 75.8281C848.391 73.1089 847.387 70.7035 846.007 68.6118C844.668 66.5202 842.953 64.8887 840.861 63.7173C838.811 62.5042 836.364 61.8976 833.519 61.8976C830.675 61.8976 828.207 62.5042 826.115 63.7173C824.065 64.8887 822.371 66.5202 821.032 68.6118C819.694 70.7035 818.71 73.1089 818.083 75.8281C817.455 78.5054 817.142 81.3501 817.142 84.3621ZM891.533 65.5998V119H876.41V51.1046H890.655L891.533 65.5998ZM888.835 82.5423L883.94 82.4796C883.982 77.6687 884.651 73.2553 885.948 69.2393C887.287 65.2233 889.128 61.7721 891.47 58.8856C893.855 55.9991 896.699 53.7819 900.004 52.2341C903.309 50.6444 906.99 49.8496 911.048 49.8496C914.311 49.8496 917.26 50.3098 919.896 51.2301C922.573 52.1086 924.853 53.5519 926.736 55.5599C928.66 57.5678 930.124 60.1824 931.128 63.4036C932.132 66.5829 932.634 70.4943 932.634 75.1378V119H917.449V75.0751C917.449 71.8121 916.968 69.2393 916.005 67.3568C915.085 65.4325 913.726 64.0729 911.927 63.2781C910.17 62.4414 907.974 62.0231 905.338 62.0231C902.744 62.0231 900.423 62.5669 898.373 63.6546C896.323 64.7423 894.587 66.2273 893.165 68.1098C891.784 69.9923 890.717 72.1677 889.964 74.6358C889.211 77.104 888.835 79.7395 888.835 82.5423Z" fill="white"/>
</svg>
