<svg width="941" height="214" viewBox="0 0 941 214" fill="none" xmlns="http://www.w3.org/2000/svg">
<path d="M32.853 156.747L24.0941 188.587C23.6909 190.052 21.4734 189.768 21.4734 188.251V155.29C21.4734 152.179 24.0649 149.656 27.2617 149.656C31.0672 149.656 33.8372 153.169 32.853 156.747Z" fill="black"/>
<path d="M48.682 173.004L28.1475 192.159C27.075 193.16 25.4265 191.878 26.1551 190.61L40.1059 166.335C41.7736 163.433 45.6519 162.669 48.3045 164.72C50.9669 166.778 51.1459 170.705 48.682 173.004Z" fill="black"/>
<path d="M46.0888 197.271L30.5057 197.271C29.129 197.271 28.6909 195.355 29.9222 194.72L43.8602 187.526C47.1736 185.816 51.0722 188.303 51.0722 192.127C51.0722 194.968 48.8411 197.271 46.0888 197.271Z" fill="black"/>
<path fill-rule="evenodd" clip-rule="evenodd" d="M9.25933 149.656C11.7464 149.656 13.7626 151.673 13.7626 154.16L13.7626 209.496C13.7626 211.983 11.7464 214 9.25933 214C6.77226 214 4.75609 211.983 4.75609 209.496L4.75609 154.16C4.75609 151.673 6.77226 149.656 9.25933 149.656Z" fill="black"/>
<path fill-rule="evenodd" clip-rule="evenodd" d="M51.0686 209.496C51.0686 211.984 49.0524 214 46.5654 214H9.25278C6.76571 214 4.74954 211.984 4.74954 209.496C4.74954 207.009 6.76571 204.992 9.25278 204.992H46.5654C49.0524 204.992 51.0686 207.009 51.0686 209.496Z" fill="black"/>
<path d="M71.2541 200.827V168.524H77.1058V195.921H91.3329V200.827H71.2541ZM96.1594 200.827V176.599H101.869V200.827H96.1594ZM99.0301 173.161C98.1258 173.161 97.3477 172.861 96.6957 172.262C96.0438 171.652 95.7178 170.921 95.7178 170.069C95.7178 169.207 96.0438 168.476 96.6957 167.877C97.3477 167.267 98.1258 166.962 99.0301 166.962C99.9449 166.962 100.723 167.267 101.364 167.877C102.016 168.476 102.342 169.207 102.342 170.069C102.342 170.921 102.016 171.652 101.364 172.262C100.723 172.861 99.9449 173.161 99.0301 173.161ZM118.277 210.416C116.226 210.416 114.465 210.138 112.993 209.58C111.521 209.034 110.338 208.298 109.444 207.372C108.55 206.447 107.93 205.422 107.583 204.297L112.725 203.051C112.956 203.524 113.293 203.992 113.734 204.454C114.176 204.927 114.77 205.317 115.517 205.621C116.274 205.937 117.225 206.095 118.372 206.095C119.991 206.095 121.332 205.7 122.394 204.912C123.456 204.134 123.987 202.851 123.987 201.063V196.473H123.703C123.408 197.062 122.977 197.667 122.409 198.287C121.852 198.908 121.111 199.428 120.185 199.849C119.271 200.269 118.119 200.48 116.731 200.48C114.87 200.48 113.182 200.043 111.668 199.17C110.164 198.287 108.966 196.973 108.072 195.227C107.189 193.471 106.747 191.273 106.747 188.634C106.747 185.974 107.189 183.729 108.072 181.899C108.966 180.059 110.17 178.666 111.684 177.719C113.198 176.762 114.886 176.284 116.747 176.284C118.166 176.284 119.334 176.526 120.249 177.01C121.174 177.483 121.91 178.056 122.457 178.729C123.004 179.391 123.419 180.017 123.703 180.606H124.018V176.599H129.649V201.221C129.649 203.292 129.155 205.006 128.166 206.363C127.178 207.719 125.827 208.734 124.113 209.407C122.399 210.08 120.454 210.416 118.277 210.416ZM118.324 196C119.533 196 120.564 195.706 121.416 195.117C122.267 194.528 122.914 193.681 123.356 192.577C123.797 191.473 124.018 190.148 124.018 188.603C124.018 187.078 123.797 185.742 123.356 184.596C122.925 183.45 122.283 182.562 121.431 181.931C120.59 181.289 119.555 180.969 118.324 180.969C117.052 180.969 115.99 181.3 115.138 181.962C114.286 182.625 113.645 183.534 113.214 184.691C112.783 185.837 112.567 187.141 112.567 188.603C112.567 190.085 112.783 191.384 113.214 192.498C113.655 193.603 114.302 194.465 115.154 195.085C116.016 195.695 117.073 196 118.324 196ZM141.211 186.631V200.827H135.501V168.524H141.084V180.716H141.368C141.936 179.349 142.814 178.271 144.002 177.483C145.201 176.684 146.726 176.284 148.577 176.284C150.259 176.284 151.726 176.636 152.977 177.341C154.228 178.045 155.196 179.076 155.879 180.432C156.573 181.789 156.92 183.445 156.92 185.401V200.827H151.211V186.284C151.211 184.654 150.79 183.387 149.949 182.483C149.118 181.568 147.951 181.11 146.447 181.11C145.438 181.11 144.533 181.331 143.734 181.773C142.946 182.204 142.325 182.83 141.873 183.65C141.431 184.47 141.211 185.464 141.211 186.631ZM174.838 176.599V181.016H160.911V176.599H174.838ZM164.349 170.795H170.059V193.539C170.059 194.307 170.175 194.896 170.406 195.306C170.648 195.706 170.963 195.979 171.353 196.126C171.742 196.273 172.173 196.347 172.646 196.347C173.003 196.347 173.329 196.321 173.624 196.268C173.929 196.216 174.16 196.168 174.318 196.126L175.28 200.59C174.975 200.695 174.539 200.811 173.971 200.937C173.414 201.063 172.73 201.137 171.92 201.158C170.49 201.2 169.202 200.984 168.056 200.511C166.91 200.027 166 199.281 165.327 198.271C164.665 197.262 164.339 196 164.349 194.486V170.795ZM193.084 200.827V168.524H203.998C206.533 168.524 208.604 168.981 210.213 169.896C211.832 170.8 213.031 172.025 213.809 173.571C214.587 175.117 214.976 176.841 214.976 178.745C214.976 180.648 214.587 182.378 213.809 183.934C213.041 185.49 211.853 186.731 210.244 187.656C208.636 188.571 206.575 189.028 204.061 189.028H196.238V185.558H203.935C205.67 185.558 207.064 185.259 208.115 184.659C209.167 184.06 209.929 183.25 210.402 182.23C210.886 181.2 211.128 180.038 211.128 178.745C211.128 177.451 210.886 176.295 210.402 175.275C209.929 174.255 209.161 173.455 208.099 172.877C207.037 172.288 205.628 171.994 203.872 171.994H196.995V200.827H193.084ZM220.773 200.827V176.599H224.369V180.259H224.621C225.063 179.06 225.862 178.087 227.019 177.341C228.176 176.594 229.479 176.221 230.931 176.221C231.204 176.221 231.546 176.226 231.956 176.237C232.366 176.247 232.676 176.263 232.886 176.284V180.069C232.76 180.038 232.471 179.991 232.019 179.928C231.577 179.854 231.109 179.817 230.615 179.817C229.437 179.817 228.386 180.064 227.46 180.558C226.546 181.042 225.82 181.715 225.284 182.577C224.758 183.429 224.495 184.402 224.495 185.495V200.827H220.773ZM246.404 201.331C244.217 201.331 242.297 200.811 240.647 199.77C239.006 198.729 237.723 197.272 236.798 195.401C235.883 193.529 235.426 191.342 235.426 188.839C235.426 186.316 235.883 184.113 236.798 182.23C237.723 180.348 239.006 178.887 240.647 177.846C242.297 176.804 244.217 176.284 246.404 176.284C248.591 176.284 250.505 176.804 252.145 177.846C253.796 178.887 255.079 180.348 255.994 182.23C256.919 184.113 257.382 186.316 257.382 188.839C257.382 191.342 256.919 193.529 255.994 195.401C255.079 197.272 253.796 198.729 252.145 199.77C250.505 200.811 248.591 201.331 246.404 201.331ZM246.404 197.987C248.065 197.987 249.432 197.562 250.505 196.71C251.577 195.858 252.371 194.738 252.886 193.35C253.402 191.962 253.659 190.459 253.659 188.839C253.659 187.22 253.402 185.711 252.886 184.312C252.371 182.914 251.577 181.783 250.505 180.921C249.432 180.059 248.065 179.628 246.404 179.628C244.742 179.628 243.375 180.059 242.303 180.921C241.23 181.783 240.436 182.914 239.921 184.312C239.406 185.711 239.148 187.22 239.148 188.839C239.148 190.459 239.406 191.962 239.921 193.35C240.436 194.738 241.23 195.858 242.303 196.71C243.375 197.562 244.742 197.987 246.404 197.987ZM273.6 176.599V179.754H261.045V176.599H273.6ZM264.704 170.795H268.427V193.886C268.427 194.938 268.579 195.727 268.884 196.252C269.199 196.768 269.599 197.115 270.083 197.293C270.577 197.462 271.097 197.546 271.644 197.546C272.054 197.546 272.391 197.525 272.654 197.483C272.917 197.43 273.127 197.388 273.285 197.357L274.042 200.7C273.789 200.795 273.437 200.89 272.985 200.984C272.533 201.089 271.96 201.142 271.266 201.142C270.214 201.142 269.184 200.916 268.174 200.464C267.175 200.012 266.345 199.323 265.682 198.398C265.03 197.472 264.704 196.305 264.704 194.896V170.795ZM288.781 201.331C286.594 201.331 284.675 200.811 283.024 199.77C281.384 198.729 280.101 197.272 279.176 195.401C278.261 193.529 277.803 191.342 277.803 188.839C277.803 186.316 278.261 184.113 279.176 182.23C280.101 180.348 281.384 178.887 283.024 177.846C284.675 176.804 286.594 176.284 288.781 176.284C290.969 176.284 292.882 176.804 294.523 177.846C296.174 178.887 297.456 180.348 298.371 182.23C299.297 184.113 299.759 186.316 299.759 188.839C299.759 191.342 299.297 193.529 298.371 195.401C297.456 197.272 296.174 198.729 294.523 199.77C292.882 200.811 290.969 201.331 288.781 201.331ZM288.781 197.987C290.443 197.987 291.81 197.562 292.882 196.71C293.955 195.858 294.749 194.738 295.264 193.35C295.779 191.962 296.037 190.459 296.037 188.839C296.037 187.22 295.779 185.711 295.264 184.312C294.749 182.914 293.955 181.783 292.882 180.921C291.81 180.059 290.443 179.628 288.781 179.628C287.12 179.628 285.753 180.059 284.68 180.921C283.608 181.783 282.814 182.914 282.299 184.312C281.783 185.711 281.526 187.22 281.526 188.839C281.526 190.459 281.783 191.962 282.299 193.35C282.814 194.738 283.608 195.858 284.68 196.71C285.753 197.562 287.12 197.987 288.781 197.987ZM315.284 201.331C313.012 201.331 311.057 200.795 309.416 199.722C307.776 198.65 306.514 197.172 305.631 195.29C304.747 193.408 304.306 191.258 304.306 188.839C304.306 186.379 304.758 184.207 305.662 182.325C306.577 180.432 307.849 178.955 309.479 177.893C311.12 176.82 313.033 176.284 315.221 176.284C316.924 176.284 318.459 176.599 319.826 177.23C321.193 177.861 322.313 178.745 323.186 179.88C324.059 181.016 324.6 182.341 324.811 183.855H321.088C320.804 182.751 320.173 181.773 319.195 180.921C318.228 180.059 316.924 179.628 315.284 179.628C313.833 179.628 312.56 180.006 311.467 180.763C310.384 181.51 309.537 182.567 308.927 183.934C308.328 185.29 308.028 186.883 308.028 188.713C308.028 190.585 308.323 192.215 308.911 193.603C309.511 194.991 310.352 196.068 311.435 196.836C312.529 197.604 313.812 197.987 315.284 197.987C316.251 197.987 317.129 197.819 317.918 197.483C318.706 197.146 319.374 196.663 319.921 196.032C320.468 195.401 320.857 194.644 321.088 193.76H324.811C324.6 195.19 324.08 196.478 323.249 197.625C322.429 198.76 321.34 199.665 319.984 200.338C318.638 201 317.071 201.331 315.284 201.331ZM340.094 201.331C337.907 201.331 335.988 200.811 334.337 199.77C332.697 198.729 331.414 197.272 330.489 195.401C329.574 193.529 329.117 191.342 329.117 188.839C329.117 186.316 329.574 184.113 330.489 182.23C331.414 180.348 332.697 178.887 334.337 177.846C335.988 176.804 337.907 176.284 340.094 176.284C342.282 176.284 344.195 176.804 345.836 177.846C347.487 178.887 348.769 180.348 349.684 182.23C350.61 184.113 351.072 186.316 351.072 188.839C351.072 191.342 350.61 193.529 349.684 195.401C348.769 197.272 347.487 198.729 345.836 199.77C344.195 200.811 342.282 201.331 340.094 201.331ZM340.094 197.987C341.756 197.987 343.123 197.562 344.195 196.71C345.268 195.858 346.062 194.738 346.577 193.35C347.092 191.962 347.35 190.459 347.35 188.839C347.35 187.22 347.092 185.711 346.577 184.312C346.062 182.914 345.268 181.783 344.195 180.921C343.123 180.059 341.756 179.628 340.094 179.628C338.433 179.628 337.066 180.059 335.993 180.921C334.921 181.783 334.127 182.914 333.612 184.312C333.097 185.711 332.839 187.22 332.839 188.839C332.839 190.459 333.097 191.962 333.612 193.35C334.127 194.738 334.921 195.858 335.993 196.71C337.066 197.562 338.433 197.987 340.094 197.987ZM360.477 168.524V200.827H356.754V168.524H360.477Z" fill="black"/>
<path d="M73.1654 106.513V119H9.7261V106.513H73.1654ZM71.7221 37.3635L15.5618 119H5.01992V109.023L61.3685 27.6374H71.7221V37.3635ZM65.8865 27.6374V40.1872H5.39642V27.6374H65.8865ZM101.31 27.6374V119H85.5595V27.6374H101.31ZM156.215 27.6374L119.193 71.6245L98.1093 93.9631L95.3484 78.3386L110.408 59.7649L137.014 27.6374H156.215ZM139.273 119L109.216 75.7032L120.072 64.9731L157.972 119H139.273ZM252.723 89.257H268.41C267.908 95.239 266.235 100.573 263.39 105.258C260.546 109.901 256.551 113.562 251.405 116.239C246.26 118.916 240.006 120.255 232.643 120.255C226.996 120.255 221.913 119.251 217.395 117.243C212.877 115.193 209.008 112.307 205.787 108.584C202.566 104.819 200.097 100.28 198.382 94.9671C196.709 89.6544 195.872 83.7141 195.872 77.1464V69.5538C195.872 62.986 196.73 57.0458 198.445 51.733C200.202 46.4203 202.712 41.8815 205.975 38.1165C209.238 34.3097 213.149 31.4024 217.709 29.3944C222.311 27.3864 227.477 26.3824 233.208 26.3824C240.487 26.3824 246.636 27.7211 251.656 30.3984C256.676 33.0757 260.567 36.7779 263.328 41.505C266.13 46.2321 267.845 51.6494 268.473 57.757H252.786C252.367 53.8247 251.447 50.4572 250.025 47.6544C248.644 44.8516 246.594 42.7181 243.875 41.254C241.156 39.748 237.6 38.995 233.208 38.995C229.61 38.995 226.473 39.6643 223.796 41.003C221.118 42.3416 218.88 44.3077 217.081 46.9014C215.283 49.495 213.923 52.6952 213.003 56.502C212.124 60.2669 211.685 64.5757 211.685 69.4283V77.1464C211.685 81.748 212.082 85.9313 212.877 89.6962C213.714 93.4193 214.969 96.6195 216.642 99.2968C218.357 101.974 220.533 104.045 223.168 105.509C225.804 106.973 228.962 107.705 232.643 107.705C237.119 107.705 240.738 106.994 243.499 105.572C246.302 104.149 248.414 102.079 249.836 99.3596C251.301 96.5986 252.263 93.2311 252.723 89.257ZM277.039 85.8058V84.3625C277.039 79.4681 277.751 74.9293 279.173 70.746C280.595 66.5209 282.645 62.8605 285.322 59.7649C288.041 56.6275 291.346 54.2012 295.237 52.486C299.169 50.7291 303.603 49.8506 308.539 49.8506C313.518 49.8506 317.952 50.7291 321.842 52.486C325.775 54.2012 329.1 56.6275 331.819 59.7649C334.538 62.8605 336.609 66.5209 338.031 70.746C339.454 74.9293 340.165 79.4681 340.165 84.3625V85.8058C340.165 90.7002 339.454 95.239 338.031 99.4223C336.609 103.606 334.538 107.266 331.819 110.403C329.1 113.499 325.795 115.925 321.905 117.682C318.015 119.397 313.601 120.255 308.665 120.255C303.687 120.255 299.232 119.397 295.299 117.682C291.409 115.925 288.104 113.499 285.385 110.403C282.666 107.266 280.595 103.606 279.173 99.4223C277.751 95.239 277.039 90.7002 277.039 85.8058ZM292.162 84.3625V85.8058C292.162 88.8596 292.476 91.746 293.103 94.4651C293.731 97.1843 294.714 99.5687 296.052 101.619C297.391 103.668 299.106 105.279 301.198 106.45C303.289 107.622 305.778 108.207 308.665 108.207C311.468 108.207 313.894 107.622 315.944 106.45C318.035 105.279 319.751 103.668 321.089 101.619C322.428 99.5687 323.411 97.1843 324.038 94.4651C324.708 91.746 325.042 88.8596 325.042 85.8058V84.3625C325.042 81.3506 324.708 78.506 324.038 75.8287C323.411 73.1095 322.407 70.7042 321.027 68.6125C319.688 66.5209 317.973 64.8894 315.881 63.7181C313.831 62.505 311.384 61.8984 308.539 61.8984C305.695 61.8984 303.227 62.505 301.135 63.7181C299.085 64.8894 297.391 66.5209 296.052 68.6125C294.714 70.7042 293.731 73.1095 293.103 75.8287C292.476 78.506 292.162 81.3506 292.162 84.3625ZM366.678 64.9103V119H351.555V51.1056H365.799L366.678 64.9103ZM364.23 82.5428L359.085 82.4801C359.085 77.7948 359.671 73.4651 360.842 69.491C362.013 65.5169 363.728 62.0657 365.987 59.1374C368.246 56.1673 371.049 53.8874 374.396 52.2978C377.784 50.6663 381.696 49.8506 386.13 49.8506C389.225 49.8506 392.049 50.3107 394.601 51.2311C397.195 52.1095 399.433 53.5109 401.315 55.4352C403.239 57.3595 404.704 59.8277 405.708 62.8396C406.753 65.8516 407.276 69.491 407.276 73.758V119H392.154V75.0757C392.154 71.7709 391.652 69.1773 390.648 67.2948C389.686 65.4123 388.284 64.0737 386.444 63.2789C384.645 62.4422 382.49 62.0239 379.98 62.0239C377.136 62.0239 374.71 62.5677 372.702 63.6554C370.735 64.743 369.125 66.2281 367.87 68.1105C366.615 69.993 365.695 72.1683 365.109 74.6364C364.523 77.1046 364.23 79.74 364.23 82.5428ZM406.335 78.5269L399.244 80.0956C399.244 75.996 399.809 72.1265 400.939 68.487C402.11 64.8058 403.804 61.5846 406.021 58.8237C408.28 56.0209 411.062 53.8247 414.367 52.235C417.672 50.6454 421.458 49.8506 425.725 49.8506C429.197 49.8506 432.292 50.3317 435.011 51.2938C437.772 52.2141 440.115 53.6783 442.039 55.6862C443.964 57.6942 445.428 60.3087 446.432 63.5299C447.436 66.7091 447.938 70.5578 447.938 75.0757V119H432.752V75.0129C432.752 71.5827 432.25 68.9263 431.246 67.0438C430.284 65.1613 428.904 63.8645 427.105 63.1534C425.306 62.4004 423.152 62.0239 420.642 62.0239C418.299 62.0239 416.228 62.4631 414.43 63.3416C412.673 64.1783 411.188 65.3705 409.975 66.9183C408.761 68.4243 407.841 70.1603 407.214 72.1265C406.628 74.0926 406.335 76.2261 406.335 78.5269ZM477.4 64.1574V145.104H462.277V51.1056H476.207L477.4 64.1574ZM521.638 84.4253V85.743C521.638 90.6793 521.052 95.26 519.881 99.4851C518.751 103.668 517.057 107.329 514.798 110.466C512.581 113.562 509.841 115.967 506.578 117.682C503.315 119.397 499.55 120.255 495.283 120.255C491.058 120.255 487.356 119.481 484.176 117.933C481.039 116.344 478.383 114.106 476.207 111.219C474.032 108.333 472.275 104.944 470.936 101.054C469.64 97.1215 468.719 92.8127 468.175 88.1275V83.0448C468.719 78.0667 469.64 73.5488 470.936 69.491C472.275 65.4333 474.032 61.9402 476.207 59.0119C478.383 56.0836 481.039 53.8247 484.176 52.235C487.314 50.6454 490.974 49.8506 495.158 49.8506C499.424 49.8506 503.21 50.6872 506.515 52.3605C509.82 53.992 512.602 56.3346 514.861 59.3884C517.12 62.4004 518.814 66.0398 519.943 70.3068C521.073 74.5319 521.638 79.238 521.638 84.4253ZM506.515 85.743V84.4253C506.515 81.2878 506.222 78.3805 505.637 75.7032C505.051 72.9841 504.131 70.5996 502.876 68.5498C501.621 66.5 500.01 64.9103 498.044 63.7809C496.12 62.6095 493.798 62.0239 491.079 62.0239C488.402 62.0239 486.101 62.484 484.176 63.4044C482.252 64.2829 480.642 65.5169 479.345 67.1066C478.048 68.6962 477.044 70.5578 476.333 72.6912C475.622 74.7829 475.12 77.0627 474.827 79.5309V91.7042C475.329 94.7161 476.186 97.4771 477.4 99.987C478.613 102.497 480.328 104.505 482.545 106.011C484.804 107.475 487.69 108.207 491.204 108.207C493.923 108.207 496.245 107.622 498.17 106.45C500.094 105.279 501.663 103.668 502.876 101.619C504.131 99.5269 505.051 97.1215 505.637 94.4024C506.222 91.6833 506.515 88.7968 506.515 85.743ZM548.401 64.0319V119H533.279V51.1056H547.711L548.401 64.0319ZM569.171 50.6663L569.046 64.7221C568.125 64.5548 567.121 64.4293 566.034 64.3456C564.988 64.2619 563.942 64.2201 562.896 64.2201C560.303 64.2201 558.023 64.5966 556.057 65.3496C554.091 66.0607 552.438 67.1066 551.1 68.487C549.803 69.8257 548.799 71.4572 548.088 73.3815C547.376 75.3058 546.958 77.4601 546.833 79.8446L543.381 80.0956C543.381 75.8287 543.8 71.8755 544.636 68.236C545.473 64.5966 546.728 61.3964 548.401 58.6354C550.116 55.8745 552.25 53.7201 554.802 52.1723C557.395 50.6245 560.386 49.8506 563.775 49.8506C564.695 49.8506 565.678 49.9342 566.724 50.1016C567.812 50.2689 568.627 50.4572 569.171 50.6663ZM606.038 120.255C601.018 120.255 596.479 119.439 592.421 117.808C588.405 116.134 584.975 113.813 582.13 110.843C579.327 107.873 577.173 104.379 575.667 100.364C574.161 96.3476 573.408 92.0179 573.408 87.3745V84.8645C573.408 79.5518 574.182 74.741 575.73 70.4323C577.278 66.1235 579.432 62.4422 582.193 59.3884C584.954 56.2928 588.217 53.9293 591.982 52.2978C595.747 50.6663 599.825 49.8506 604.218 49.8506C609.07 49.8506 613.316 50.6663 616.956 52.2978C620.595 53.9293 623.607 56.2301 625.992 59.2002C628.418 62.1285 630.217 65.6215 631.388 69.6793C632.601 73.737 633.208 78.2131 633.208 83.1076V89.5707H580.75V78.7151H618.274V77.5229C618.19 74.8038 617.646 72.252 616.642 69.8675C615.68 67.4831 614.195 65.5588 612.187 64.0946C610.179 62.6305 607.502 61.8984 604.155 61.8984C601.645 61.8984 599.407 62.4422 597.441 63.5299C595.517 64.5757 593.906 66.1026 592.609 68.1105C591.312 70.1185 590.309 72.5448 589.597 75.3894C588.928 78.1922 588.593 81.3506 588.593 84.8645V87.3745C588.593 90.3446 588.991 93.1056 589.786 95.6574C590.622 98.1673 591.835 100.364 593.425 102.246C595.015 104.128 596.939 105.614 599.198 106.701C601.457 107.747 604.03 108.27 606.916 108.27C610.556 108.27 613.798 107.538 616.642 106.074C619.487 104.61 621.955 102.539 624.047 99.8615L632.016 107.58C630.552 109.713 628.648 111.763 626.306 113.729C623.963 115.653 621.097 117.222 617.709 118.435C614.362 119.648 610.472 120.255 606.038 120.255ZM681.808 100.615C681.808 99.1086 681.432 97.749 680.679 96.5359C679.926 95.2809 678.483 94.1514 676.349 93.1474C674.257 92.1434 671.162 91.2231 667.062 90.3864C663.465 89.5916 660.16 88.6504 657.148 87.5627C654.178 86.4333 651.626 85.0737 649.493 83.4841C647.359 81.8944 645.707 80.0119 644.535 77.8366C643.364 75.6613 642.778 73.1514 642.778 70.3068C642.778 67.5458 643.385 64.9313 644.598 62.4631C645.811 59.995 647.547 57.8197 649.806 55.9372C652.065 54.0548 654.805 52.5697 658.026 51.4821C661.289 50.3944 664.929 49.8506 668.945 49.8506C674.634 49.8506 679.507 50.8127 683.565 52.737C687.665 54.6195 690.802 57.1922 692.978 60.4552C695.153 63.6763 696.241 67.3157 696.241 71.3735H681.118C681.118 69.5747 680.658 67.9014 679.738 66.3536C678.859 64.7639 677.52 63.488 675.722 62.5259C673.923 61.5219 671.664 61.0199 668.945 61.0199C666.351 61.0199 664.197 61.4382 662.482 62.2749C660.808 63.0697 659.553 64.1155 658.717 65.4123C657.922 66.7091 657.524 68.1315 657.524 69.6793C657.524 70.8088 657.734 71.8337 658.152 72.754C658.612 73.6325 659.365 74.4482 660.411 75.2012C661.457 75.9123 662.879 76.5817 664.678 77.2092C666.518 77.8366 668.819 78.4432 671.58 79.0289C676.767 80.1165 681.223 81.5179 684.946 83.2331C688.711 84.9064 691.597 87.0817 693.605 89.759C695.613 92.3944 696.617 95.741 696.617 99.7988C696.617 102.811 695.969 105.572 694.672 108.082C693.417 110.55 691.576 112.704 689.15 114.545C686.724 116.344 683.816 117.745 680.428 118.749C677.081 119.753 673.316 120.255 669.133 120.255C662.984 120.255 657.775 119.167 653.508 116.992C649.242 114.775 645.999 111.951 643.782 108.521C641.607 105.049 640.519 101.451 640.519 97.7281H655.14C655.307 100.531 656.081 102.769 657.462 104.442C658.884 106.074 660.641 107.266 662.733 108.019C664.866 108.73 667.062 109.086 669.321 109.086C672.04 109.086 674.32 108.73 676.161 108.019C678.001 107.266 679.403 106.262 680.365 105.007C681.327 103.71 681.808 102.246 681.808 100.615ZM746.661 100.615C746.661 99.1086 746.284 97.749 745.531 96.5359C744.778 95.2809 743.335 94.1514 741.201 93.1474C739.11 92.1434 736.014 91.2231 731.915 90.3864C728.317 89.5916 725.012 88.6504 722 87.5627C719.03 86.4333 716.478 85.0737 714.345 83.4841C712.211 81.8944 710.559 80.0119 709.388 77.8366C708.216 75.6613 707.631 73.1514 707.631 70.3068C707.631 67.5458 708.237 64.9313 709.45 62.4631C710.664 59.995 712.4 57.8197 714.659 55.9372C716.918 54.0548 719.658 52.5697 722.879 51.4821C726.142 50.3944 729.781 49.8506 733.797 49.8506C739.486 49.8506 744.36 50.8127 748.418 52.737C752.517 54.6195 755.655 57.1922 757.83 60.4552C760.005 63.6763 761.093 67.3157 761.093 71.3735H745.97C745.97 69.5747 745.51 67.9014 744.59 66.3536C743.711 64.7639 742.373 63.488 740.574 62.5259C738.775 61.5219 736.516 61.0199 733.797 61.0199C731.203 61.0199 729.049 61.4382 727.334 62.2749C725.661 63.0697 724.406 64.1155 723.569 65.4123C722.774 66.7091 722.377 68.1315 722.377 69.6793C722.377 70.8088 722.586 71.8337 723.004 72.754C723.464 73.6325 724.217 74.4482 725.263 75.2012C726.309 75.9123 727.731 76.5817 729.53 77.2092C731.371 77.8366 733.672 78.4432 736.433 79.0289C741.62 80.1165 746.075 81.5179 749.798 83.2331C753.563 84.9064 756.449 87.0817 758.457 89.759C760.465 92.3944 761.469 95.741 761.469 99.7988C761.469 102.811 760.821 105.572 759.524 108.082C758.269 110.55 756.429 112.704 754.002 114.545C751.576 116.344 748.669 117.745 745.28 118.749C741.934 119.753 738.169 120.255 733.985 120.255C727.836 120.255 722.628 119.167 718.361 116.992C714.094 114.775 710.852 111.951 708.635 108.521C706.459 105.049 705.372 101.451 705.372 97.7281H719.992C720.16 100.531 720.934 102.769 722.314 104.442C723.736 106.074 725.493 107.266 727.585 108.019C729.718 108.73 731.915 109.086 734.174 109.086C736.893 109.086 739.173 108.73 741.013 108.019C742.854 107.266 744.255 106.262 745.217 105.007C746.18 103.71 746.661 102.246 746.661 100.615ZM789.614 51.1056V119H774.428V51.1056H789.614ZM773.424 33.2848C773.424 30.984 774.177 29.0807 775.683 27.5747C777.231 26.0269 779.365 25.253 782.084 25.253C784.761 25.253 786.874 26.0269 788.421 27.5747C789.969 29.0807 790.743 30.984 790.743 33.2848C790.743 35.5438 789.969 37.4263 788.421 38.9322C786.874 40.4382 784.761 41.1912 782.084 41.1912C779.365 41.1912 777.231 40.4382 775.683 38.9322C774.177 37.4263 773.424 35.5438 773.424 33.2848ZM802.008 85.8058V84.3625C802.008 79.4681 802.719 74.9293 804.141 70.746C805.564 66.5209 807.613 62.8605 810.291 59.7649C813.01 56.6275 816.315 54.2012 820.205 52.486C824.137 50.7291 828.572 49.8506 833.508 49.8506C838.486 49.8506 842.92 50.7291 846.811 52.486C850.743 54.2012 854.069 56.6275 856.788 59.7649C859.507 62.8605 861.578 66.5209 863 70.746C864.422 74.9293 865.133 79.4681 865.133 84.3625V85.8058C865.133 90.7002 864.422 95.239 863 99.4223C861.578 103.606 859.507 107.266 856.788 110.403C854.069 113.499 850.764 115.925 846.873 117.682C842.983 119.397 838.57 120.255 833.633 120.255C828.655 120.255 824.2 119.397 820.268 117.682C816.377 115.925 813.073 113.499 810.353 110.403C807.634 107.266 805.564 103.606 804.141 99.4223C802.719 95.239 802.008 90.7002 802.008 85.8058ZM817.13 84.3625V85.8058C817.13 88.8596 817.444 91.746 818.072 94.4651C818.699 97.1843 819.682 99.5687 821.021 101.619C822.359 103.668 824.075 105.279 826.166 106.45C828.258 107.622 830.747 108.207 833.633 108.207C836.436 108.207 838.862 107.622 840.912 106.45C843.004 105.279 844.719 103.668 846.058 101.619C847.396 99.5687 848.379 97.1843 849.007 94.4651C849.676 91.746 850.011 88.8596 850.011 85.8058V84.3625C850.011 81.3506 849.676 78.506 849.007 75.8287C848.379 73.1095 847.375 70.7042 845.995 68.6125C844.656 66.5209 842.941 64.8894 840.849 63.7181C838.8 62.505 836.352 61.8984 833.508 61.8984C830.663 61.8984 828.195 62.505 826.103 63.7181C824.054 64.8894 822.359 66.5209 821.021 68.6125C819.682 70.7042 818.699 73.1095 818.072 75.8287C817.444 78.506 817.13 81.3506 817.13 84.3625ZM891.521 65.6006V119H876.398V51.1056H890.642L891.521 65.6006ZM888.822 82.5428L883.928 82.4801C883.97 77.6693 884.639 73.256 885.936 69.24C887.274 65.2241 889.115 61.7729 891.458 58.8864C893.842 56 896.687 53.7829 899.992 52.235C903.296 50.6454 906.978 49.8506 911.035 49.8506C914.298 49.8506 917.248 50.3107 919.883 51.2311C922.56 52.1095 924.84 53.5528 926.723 55.5607C928.647 57.5687 930.111 60.1833 931.115 63.4044C932.119 66.5837 932.621 70.495 932.621 75.1384V119H917.436V75.0757C917.436 71.8127 916.955 69.24 915.993 67.3576C915.072 65.4333 913.713 64.0737 911.914 63.2789C910.157 62.4422 907.961 62.0239 905.325 62.0239C902.732 62.0239 900.41 62.5677 898.36 63.6554C896.31 64.743 894.574 66.2281 893.152 68.1105C891.772 69.993 890.705 72.1683 889.952 74.6364C889.199 77.1046 888.822 79.74 888.822 82.5428Z" fill="black"/>
<path d="M438.954 163.937C436.46 162.883 433.78 162.342 431.072 162.346C428.276 162.346 425.614 162.911 423.192 163.937L430.43 151.367C430.495 151.255 430.588 151.163 430.7 151.098C430.811 151.034 430.938 151 431.067 151C431.196 151 431.323 151.034 431.435 151.098C431.546 151.163 431.639 151.255 431.704 151.367L438.947 163.937H438.954Z" fill="black"/>
<path d="M421.278 164.879C418.886 166.207 416.786 168.006 415.106 170.166C413.425 172.326 412.197 174.803 411.497 177.449L406.116 163.708C406.068 163.588 406.053 163.457 406.072 163.329C406.091 163.201 406.143 163.08 406.224 162.979C406.304 162.878 406.41 162.8 406.53 162.752C406.651 162.705 406.781 162.69 406.909 162.709L421.278 164.879Z" fill="black"/>
<path d="M415.136 195.181L400.523 190.66C400.4 190.621 400.288 190.551 400.201 190.456C400.113 190.362 400.051 190.246 400.022 190.12C399.993 189.994 399.997 189.863 400.035 189.739C400.072 189.615 400.142 189.504 400.236 189.415L411.092 179.317C410.911 180.419 410.82 181.534 410.82 182.651C410.82 187.381 412.434 191.733 415.138 195.181H415.136Z" fill="black"/>
<path d="M430.787 202.955L417.975 211.707C417.868 211.78 417.744 211.825 417.615 211.835C417.485 211.845 417.356 211.82 417.239 211.764C417.122 211.708 417.023 211.621 416.95 211.514C416.878 211.406 416.836 211.282 416.827 211.152L415.683 195.829C417.547 198.024 419.859 199.796 422.464 201.024C425.069 202.252 427.907 202.909 430.787 202.949V202.955Z" fill="black"/>
<path d="M446.443 195.892L445.305 211.137C445.289 211.331 445.198 211.511 445.051 211.639C444.903 211.766 444.711 211.83 444.517 211.816C444.388 211.808 444.263 211.765 444.156 211.693L431.37 202.956C434.24 202.918 437.069 202.268 439.668 201.05C442.267 199.832 444.577 198.074 446.443 195.892Z" fill="black"/>
<path d="M461.627 190.614L447.077 195.114C449.848 191.551 451.349 187.165 451.341 182.652C451.341 181.501 451.242 180.371 451.06 179.271L461.91 189.363C462.327 189.75 462.166 190.445 461.627 190.609V190.614Z" fill="black"/>
<path d="M456.049 163.735L450.675 177.472C449.977 174.829 448.754 172.354 447.079 170.194C445.404 168.034 443.311 166.234 440.925 164.9L455.256 162.734C455.383 162.715 455.514 162.73 455.634 162.777C455.755 162.825 455.86 162.903 455.941 163.004C456.021 163.106 456.074 163.226 456.093 163.354C456.112 163.482 456.097 163.613 456.049 163.733V163.735Z" fill="black"/>
<path d="M431.085 207.339C430.374 207.34 429.669 207.481 429.012 207.754C428.355 208.027 427.758 208.427 427.256 208.93C426.753 209.434 426.355 210.032 426.084 210.69C425.812 211.348 425.673 212.052 425.674 212.764H436.502C436.503 212.052 436.364 211.348 436.093 210.69C435.821 210.032 435.423 209.434 434.921 208.93C434.418 208.427 433.821 208.027 433.164 207.754C432.507 207.481 431.803 207.34 431.091 207.339H431.085Z" fill="black"/>
<path d="M450.868 198.449C449.972 199.575 449.559 201.01 449.72 202.44C449.88 203.87 450.601 205.178 451.724 206.077L458.472 197.592C457.916 197.148 457.279 196.817 456.595 196.62C455.912 196.423 455.196 196.362 454.49 196.442C453.783 196.522 453.099 196.74 452.476 197.085C451.854 197.429 451.306 197.894 450.864 198.45H450.868V198.449Z" fill="black"/>
<path d="M455.301 177.466C455.458 178.16 455.75 178.817 456.16 179.398C456.571 179.979 457.092 180.473 457.694 180.853C458.297 181.232 458.968 181.488 459.669 181.608C460.371 181.727 461.089 181.706 461.782 181.548L459.372 170.963C458.678 171.123 458.022 171.417 457.442 171.83C456.861 172.243 456.368 172.766 455.99 173.369C455.612 173.973 455.357 174.645 455.239 175.347C455.12 176.049 455.142 176.768 455.301 177.462V177.466Z" fill="black"/>
<path d="M442.035 160.867C442.675 161.177 443.371 161.357 444.082 161.396C444.792 161.436 445.504 161.336 446.175 161.1C446.847 160.864 447.465 160.498 447.995 160.023C448.524 159.547 448.955 158.972 449.262 158.33L439.508 153.62C438.884 154.917 438.799 156.409 439.274 157.767C439.749 159.126 440.743 160.241 442.039 160.867H442.033H442.035Z" fill="black"/>
<path d="M419.895 160.867C421.19 160.24 422.183 159.125 422.657 157.766C423.13 156.408 423.046 154.916 422.421 153.62L412.666 158.33C412.974 158.972 413.405 159.546 413.935 160.021C414.465 160.496 415.084 160.861 415.755 161.097C416.427 161.332 417.138 161.432 417.848 161.392C418.559 161.352 419.254 161.172 419.895 160.863V160.867Z" fill="black"/>
<path d="M406.992 177.466C407.312 176.064 407.063 174.592 406.298 173.374C405.534 172.156 404.317 171.291 402.915 170.97L400.509 181.552C401.203 181.71 401.922 181.73 402.623 181.61C403.325 181.49 403.996 181.233 404.598 180.854C405.2 180.474 405.722 179.98 406.133 179.398C406.543 178.817 406.835 178.16 406.992 177.466Z" fill="black"/>
<path d="M404.44 197.592L411.193 206.077C412.316 205.178 413.037 203.87 413.197 202.44C413.358 201.01 412.944 199.575 412.048 198.449C411.605 197.892 411.057 197.428 410.435 197.084C409.813 196.74 409.129 196.522 408.422 196.442C407.715 196.362 407 196.423 406.316 196.62C405.633 196.817 404.995 197.148 404.44 197.592Z" fill="black"/>
<path d="M492.814 166.767V182.305H511.002V167.668H519.29V202.51H511.003V189.713H492.814V202.51H484.526V169.011L492.814 166.767ZM534.295 195.098H559.65L557.411 202.506H526.012V167.661H559.654L557.415 175.071H534.3V181.4H555.845V188.808H534.3V195.096L534.295 195.098ZM572.952 167.664V195.098H597.409L595.17 202.506H564.665V167.661H572.952V167.664ZM609.281 167.664V202.507H600.995V167.663H609.281V167.664ZM644.042 167.664H652.329V188.68C652.329 198.829 644.041 203.27 633.336 203.27C622.633 203.27 614.924 198.509 614.924 188.68V169.011L623.212 166.767V188.678C623.212 193.794 626.614 195.729 633.739 195.729C640.863 195.729 644.042 193.663 644.042 188.678V167.661V167.664ZM656.541 178.263C656.541 172.921 660.752 167.664 668.994 167.664H692.645L690.408 175.072H669.082C666.529 175.072 665.272 176.687 665.272 178.258C665.272 179.827 666.573 181.402 669.082 181.402H681.085C689.191 181.402 693.404 186.654 693.404 192.002C693.404 197.348 689.415 202.506 681.085 202.506H656.541L658.78 195.098H680.997C683.508 195.098 684.807 193.617 684.807 192.002C684.807 190.385 683.554 188.768 680.997 188.768H668.994C660.616 188.768 656.541 183.516 656.541 178.263Z" fill="black"/>
</svg>
