<svg width="686" height="953" viewBox="0 0 686 953" fill="none" xmlns="http://www.w3.org/2000/svg">
<path d="M416.258 104.992L286.537 576.461C280.566 598.162 247.724 593.958 247.724 571.493V83.4181C247.724 37.3476 286.104 0 333.449 0C389.809 0 430.835 52.0154 416.258 104.992Z" fill="white"/>
<path d="M650.708 345.724L346.589 629.368C330.706 644.182 306.29 625.2 317.081 606.426L523.694 246.974C548.394 204.004 605.833 192.689 645.118 223.056C684.549 253.535 687.199 311.69 650.708 345.724Z" fill="white"/>
<path d="M612.198 705.051L381.41 705.051C361.021 705.051 354.533 676.683 372.769 667.272L579.192 560.748C628.264 535.425 686.001 572.254 686.001 628.879C686.001 670.948 652.958 705.051 612.198 705.051Z" fill="white"/>
<path fill-rule="evenodd" clip-rule="evenodd" d="M66.6988 2.91528e-06C103.533 1.30522e-06 133.393 29.8598 133.393 66.6938L133.393 886.075C133.393 922.909 103.533 952.769 66.6988 952.769C29.8648 952.769 0.00496321 922.909 0.0049616 886.075L0.00492578 66.6938C0.00492417 29.8599 29.8648 4.52535e-06 66.6988 2.91528e-06Z" fill="white"/>
<path fill-rule="evenodd" clip-rule="evenodd" d="M685.996 886.077C685.996 922.911 656.136 952.771 619.302 952.771L66.6962 952.771C29.8622 952.771 0.00236511 922.911 0.00236511 886.077C0.00236511 849.243 29.8622 819.383 66.6962 819.383L619.302 819.383C656.136 819.383 685.996 849.243 685.996 886.077Z" fill="white"/>
</svg>
