<svg width="687" height="954" viewBox="0 0 687 954" fill="none" xmlns="http://www.w3.org/2000/svg">
<path d="M416.795 105.516L287.066 577.012C281.094 598.715 248.251 594.51 248.251 572.043V83.9403C248.251 37.8671 286.634 0.517334 333.981 0.517334C390.345 0.517334 431.372 52.5358 416.795 105.516Z" fill="black"/>
<path d="M651.259 346.261L347.122 629.922C331.237 644.737 306.821 625.754 317.612 606.979L524.237 247.506C548.938 204.533 606.381 193.218 645.668 223.587C685.101 254.068 687.752 312.225 651.259 346.261Z" fill="black"/>
<path d="M612.746 705.61L381.945 705.61C361.555 705.61 355.066 677.24 373.304 667.829L579.738 561.298C628.813 535.973 686.554 572.805 686.554 629.433C686.554 671.504 653.509 705.61 612.746 705.61Z" fill="black"/>
<path fill-rule="evenodd" clip-rule="evenodd" d="M67.2151 0.517337C104.051 0.517335 133.913 30.3789 133.913 67.2151L133.913 886.644C133.913 923.48 104.051 953.342 67.2151 953.342C30.379 953.342 0.517386 923.48 0.517384 886.644L0.517348 67.2151C0.517347 30.3789 30.3789 0.517339 67.2151 0.517337Z" fill="black" stroke="black" stroke-width="1.03475" stroke-linecap="round"/>
<path fill-rule="evenodd" clip-rule="evenodd" d="M686.549 886.646C686.549 923.482 656.687 953.344 619.851 953.344L67.2125 953.344C30.3764 953.344 0.51474 923.482 0.51474 886.646C0.51474 849.81 30.3764 819.948 67.2125 819.948L619.851 819.948C656.687 819.948 686.549 849.81 686.549 886.646Z" fill="black"/>
</svg>
