<svg width="687" height="954" viewBox="0 0 687 954" fill="none" xmlns="http://www.w3.org/2000/svg">
<path d="M416.452 105.041L286.67 576.73C280.696 598.441 247.839 594.235 247.839 571.759V83.457C247.839 37.365 286.238 0 333.605 0C389.991 0 431.036 52.0397 416.452 105.041Z" fill="#0066FF"/>
<path d="M651.012 345.885L346.751 629.661C330.86 644.483 306.433 625.492 317.229 606.709L523.938 247.09C548.65 204.099 606.115 192.779 645.419 223.16C684.868 253.654 687.519 311.835 651.012 345.885Z" fill="#0066FF"/>
<path d="M612.483 705.38L381.588 705.38C361.19 705.38 354.698 676.999 372.943 667.583L579.462 561.01C628.557 535.674 686.321 572.52 686.321 629.172C686.321 671.26 653.263 705.38 612.483 705.38Z" fill="#0066FF"/>
<path fill-rule="evenodd" clip-rule="evenodd" d="M66.7299 2.91664e-06C103.581 1.30582e-06 133.455 29.8738 133.455 66.7249L133.455 886.488C133.455 923.34 103.581 953.213 66.7299 953.213C29.8788 953.213 0.00498421 923.34 0.0049826 886.488L0.00494676 66.7249C0.00494515 29.8738 29.8787 4.52746e-06 66.7299 2.91664e-06Z" fill="#0066FF"/>
<path fill-rule="evenodd" clip-rule="evenodd" d="M686.316 886.49C686.316 923.341 656.442 953.215 619.591 953.215L66.7273 953.215C29.8762 953.215 0.00241089 923.341 0.00241089 886.49C0.00241089 849.639 29.8762 819.765 66.7273 819.765L619.591 819.765C656.442 819.765 686.316 849.639 686.316 886.49Z" fill="#0066FF"/>
</svg>
