<svg width="1114" height="196" viewBox="0 0 1114 196" fill="none" xmlns="http://www.w3.org/2000/svg">
<path d="M239.958 147V48.249H251.916V136.392H297.82V147H239.958ZM314.793 147V72.9367H326.172V147H314.793ZM320.579 60.5928C318.361 60.5928 316.448 59.8374 314.841 58.3266C313.266 56.8157 312.478 54.9995 312.478 52.8779C312.478 50.7563 313.266 48.9401 314.841 47.4292C316.448 45.9184 318.361 45.163 320.579 45.163C322.797 45.163 324.694 45.9184 326.269 47.4292C327.876 48.9401 328.68 50.7563 328.68 52.8779C328.68 54.9995 327.876 56.8157 326.269 58.3266C324.694 59.8374 322.797 60.5928 320.579 60.5928ZM376.91 176.317C371.413 176.317 366.688 175.61 362.734 174.195C358.78 172.813 355.485 170.981 352.849 168.698C350.245 166.448 348.172 164.037 346.629 161.465L355.694 155.101C356.723 156.451 358.025 157.994 359.6 159.73C361.175 161.498 363.329 163.025 366.061 164.31C368.826 165.628 372.442 166.287 376.91 166.287C382.889 166.287 387.824 164.841 391.713 161.948C395.603 159.055 397.548 154.522 397.548 148.35V133.306H396.583C395.747 134.656 394.558 136.328 393.015 138.321C391.504 140.282 389.318 142.034 386.457 143.577C383.629 145.087 379.803 145.843 374.981 145.843C369.002 145.843 363.634 144.428 358.876 141.6C354.151 138.771 350.406 134.656 347.642 129.256C344.909 123.855 343.543 117.298 343.543 109.583C343.543 101.996 344.877 95.3904 347.545 89.7649C350.213 84.1073 353.926 79.7355 358.684 76.6495C363.441 73.5314 368.938 71.9724 375.174 71.9724C379.996 71.9724 383.821 72.776 386.65 74.3833C389.511 75.9584 391.697 77.7585 393.208 79.7837C394.751 81.7767 395.94 83.4162 396.776 84.702H397.933V72.9367H408.927V149.122C408.927 155.486 407.481 160.662 404.587 164.648C401.726 168.666 397.869 171.607 393.015 173.472C388.193 175.368 382.825 176.317 376.91 176.317ZM376.524 135.62C381.089 135.62 384.946 134.576 388.097 132.486C391.247 130.397 393.642 127.391 395.281 123.469C396.921 119.548 397.74 114.854 397.74 109.39C397.74 104.054 396.937 99.3443 395.329 95.2618C393.722 91.1793 391.343 87.9808 388.193 85.6663C385.043 83.3519 381.153 82.1946 376.524 82.1946C371.703 82.1946 367.684 83.4162 364.47 85.8592C361.287 88.3023 358.893 91.5811 357.285 95.6957C355.71 99.8104 354.923 104.375 354.923 109.39C354.923 114.533 355.726 119.082 357.333 123.036C358.973 126.957 361.384 130.043 364.566 132.293C367.781 134.511 371.767 135.62 376.524 135.62ZM441.137 102.446V147H429.757V48.249H441.137V84.5091H442.101C443.837 80.6838 446.441 77.646 449.913 75.3959C453.416 73.1135 458.078 71.9724 463.896 71.9724C468.943 71.9724 473.363 72.9849 477.156 75.0101C480.949 77.0031 483.89 80.073 485.98 84.2198C488.101 88.3344 489.162 93.5741 489.162 99.939V147H477.783V100.71C477.783 94.8278 476.256 90.2792 473.202 87.0647C470.18 83.818 465.985 82.1946 460.617 82.1946C456.888 82.1946 453.545 82.9822 450.588 84.5573C447.662 86.1325 445.348 88.4309 443.644 91.4525C441.973 94.4742 441.137 98.1388 441.137 102.446ZM542.19 72.9367V82.5804H503.809V72.9367H542.19ZM514.995 55.1924H526.375V125.784C526.375 128.999 526.841 131.409 527.773 133.017C528.737 134.592 529.959 135.653 531.438 136.199C532.948 136.713 534.54 136.971 536.211 136.971C537.465 136.971 538.494 136.906 539.297 136.778C540.101 136.617 540.744 136.488 541.226 136.392L543.54 146.614C542.769 146.904 541.692 147.193 540.31 147.482C538.928 147.804 537.176 147.964 535.054 147.964C531.839 147.964 528.689 147.273 525.603 145.891C522.549 144.509 520.01 142.403 517.985 139.574C515.992 136.746 514.995 133.177 514.995 128.87V55.1924ZM600.197 147V48.249H632.069C639.077 48.249 644.927 49.5991 649.621 52.2993C654.346 54.9674 657.898 58.5998 660.277 63.1966C662.688 67.7934 663.893 72.9689 663.893 78.7229C663.893 84.477 662.704 89.6685 660.325 94.2974C657.946 98.8942 654.41 102.543 649.717 105.243C645.024 107.911 639.189 109.245 632.214 109.245H607.14V101.144H631.973C637.148 101.144 641.44 100.18 644.847 98.2513C648.254 96.2904 650.794 93.6224 652.466 90.2471C654.169 86.8718 655.021 83.0304 655.021 78.7229C655.021 74.4154 654.169 70.574 652.466 67.1987C650.794 63.8235 648.238 61.1715 644.799 59.2427C641.391 57.314 637.068 56.3496 631.828 56.3496H609.214V147H600.197ZM683.277 147V72.9367H691.619V84.3162H692.246C693.724 80.5873 696.296 77.5817 699.961 75.2994C703.657 72.9849 707.836 71.8277 712.497 71.8277C713.205 71.8277 713.992 71.8438 714.86 71.8759C715.728 71.9081 716.451 71.9402 717.03 71.9724V80.6999C716.644 80.6356 715.969 80.5391 715.005 80.4106C714.04 80.282 712.996 80.2177 711.87 80.2177C708.013 80.2177 704.573 81.0374 701.552 82.6768C698.562 84.2841 696.2 86.5182 694.464 89.3791C692.728 92.2401 691.86 95.5029 691.86 99.1675V147H683.277ZM758.208 148.543C751.811 148.543 746.154 146.92 741.235 143.673C736.349 140.426 732.524 135.942 729.759 130.22C726.995 124.466 725.613 117.828 725.613 110.306C725.613 102.72 726.995 96.0493 729.759 90.2953C732.524 84.5091 736.349 80.0087 741.235 76.7942C746.154 73.5475 751.811 71.9241 758.208 71.9241C764.605 71.9241 770.247 73.5475 775.133 76.7942C780.019 80.0409 783.844 84.5412 786.609 90.2953C789.405 96.0493 790.804 102.72 790.804 110.306C790.804 117.828 789.422 124.466 786.657 130.22C783.893 135.942 780.051 140.426 775.133 143.673C770.247 146.92 764.605 148.543 758.208 148.543ZM758.208 140.683C763.352 140.683 767.707 139.301 771.275 136.537C774.844 133.772 777.544 130.091 779.376 125.495C781.241 120.898 782.173 115.835 782.173 110.306C782.173 104.777 781.241 99.6979 779.376 95.0689C777.544 90.44 774.844 86.7271 771.275 83.9305C767.707 81.1338 763.352 79.7355 758.208 79.7355C753.097 79.7355 748.741 81.1338 745.141 83.9305C741.573 86.7271 738.857 90.44 736.992 95.0689C735.16 99.6979 734.244 104.777 734.244 110.306C734.244 115.835 735.16 120.898 736.992 125.495C738.857 130.091 741.573 133.772 745.141 136.537C748.709 139.301 753.065 140.683 758.208 140.683ZM838.817 72.9367V80.4106H803.473V72.9367H838.817ZM814.515 55.1924H823.146V127.664C823.146 130.75 823.677 133.177 824.737 134.945C825.798 136.681 827.18 137.919 828.884 138.658C830.588 139.365 832.404 139.719 834.333 139.719C835.458 139.719 836.422 139.655 837.226 139.526C838.03 139.365 838.737 139.205 839.348 139.044L841.18 146.807C840.344 147.129 839.315 147.418 838.094 147.675C836.872 147.964 835.361 148.109 833.561 148.109C830.411 148.109 827.373 147.418 824.448 146.036C821.555 144.653 819.176 142.596 817.312 139.864C815.447 137.131 814.515 133.74 814.515 129.69V55.1924ZM886.3 148.543C879.903 148.543 874.246 146.92 869.327 143.673C864.441 140.426 860.616 135.942 857.851 130.22C855.087 124.466 853.705 117.828 853.705 110.306C853.705 102.72 855.087 96.0493 857.851 90.2953C860.616 84.5091 864.441 80.0087 869.327 76.7942C874.246 73.5475 879.903 71.9241 886.3 71.9241C892.697 71.9241 898.339 73.5475 903.225 76.7942C908.111 80.0409 911.936 84.5412 914.701 90.2953C917.497 96.0493 918.896 102.72 918.896 110.306C918.896 117.828 917.513 124.466 914.749 130.22C911.984 135.942 908.143 140.426 903.225 143.673C898.339 146.92 892.697 148.543 886.3 148.543ZM886.3 140.683C891.443 140.683 895.799 139.301 899.367 136.537C902.935 133.772 905.636 130.091 907.468 125.495C909.332 120.898 910.265 115.835 910.265 110.306C910.265 104.777 909.332 99.6979 907.468 95.0689C905.636 90.44 902.935 86.7271 899.367 83.9305C895.799 81.1338 891.443 79.7355 886.3 79.7355C881.189 79.7355 876.833 81.1338 873.233 83.9305C869.665 86.7271 866.949 90.44 865.084 95.0689C863.252 99.6979 862.336 104.777 862.336 110.306C862.336 115.835 863.252 120.898 865.084 125.495C866.949 130.091 869.665 133.772 873.233 136.537C876.801 139.301 881.157 140.683 886.3 140.683ZM966.668 148.543C960.046 148.543 954.276 146.887 949.358 143.577C944.471 140.266 940.678 135.733 937.978 129.979C935.278 124.225 933.928 117.667 933.928 110.306C933.928 102.88 935.294 96.2744 938.026 90.4882C940.791 84.702 944.616 80.1695 949.502 76.8906C954.388 73.5796 960.062 71.9241 966.523 71.9241C971.474 71.9241 975.958 72.8885 979.976 74.8172C983.994 76.7138 987.305 79.398 989.909 82.8697C992.545 86.3093 994.201 90.3274 994.876 94.9243H986.196C985.296 90.7453 983.126 87.1772 979.687 84.2198C976.279 81.2303 971.94 79.7355 966.668 79.7355C961.943 79.7355 957.764 81.0213 954.131 83.593C950.499 86.1325 947.654 89.6845 945.597 94.2492C943.571 98.7817 942.559 104.038 942.559 110.017C942.559 116.028 943.555 121.348 945.548 125.977C947.541 130.574 950.338 134.174 953.938 136.778C957.571 139.382 961.814 140.683 966.668 140.683C969.947 140.683 972.936 140.073 975.637 138.851C978.369 137.597 980.651 135.829 982.484 133.547C984.348 131.265 985.602 128.548 986.245 125.398H994.924C994.281 129.866 992.69 133.852 990.15 137.356C987.643 140.828 984.38 143.56 980.362 145.553C976.376 147.546 971.811 148.543 966.668 148.543ZM1042.11 148.543C1035.71 148.543 1030.05 146.92 1025.13 143.673C1020.25 140.426 1016.42 135.942 1013.66 130.22C1010.89 124.466 1009.51 117.828 1009.51 110.306C1009.51 102.72 1010.89 96.0493 1013.66 90.2953C1016.42 84.5091 1020.25 80.0087 1025.13 76.7942C1030.05 73.5475 1035.71 71.9241 1042.11 71.9241C1048.5 71.9241 1054.14 73.5475 1059.03 76.7942C1063.92 80.0409 1067.74 84.5412 1070.51 90.2953C1073.3 96.0493 1074.7 102.72 1074.7 110.306C1074.7 117.828 1073.32 124.466 1070.55 130.22C1067.79 135.942 1063.95 140.426 1059.03 143.673C1054.14 146.92 1048.5 148.543 1042.11 148.543ZM1042.11 140.683C1047.25 140.683 1051.6 139.301 1055.17 136.537C1058.74 133.772 1061.44 130.091 1063.27 125.495C1065.14 120.898 1066.07 115.835 1066.07 110.306C1066.07 104.777 1065.14 99.6979 1063.27 95.0689C1061.44 90.44 1058.74 86.7271 1055.17 83.9305C1051.6 81.1338 1047.25 79.7355 1042.11 79.7355C1036.99 79.7355 1032.64 81.1338 1029.04 83.9305C1025.47 86.7271 1022.75 90.44 1020.89 95.0689C1019.06 99.6979 1018.14 104.777 1018.14 110.306C1018.14 115.835 1019.06 120.898 1020.89 125.495C1022.75 130.091 1025.47 133.772 1029.04 136.537C1032.61 139.301 1036.96 140.683 1042.11 140.683ZM1102.13 48.249V147H1093.54V48.249H1102.13Z" fill="black"/>
<path d="M85.2609 21.5051L58.6905 118.074C57.4675 122.519 50.7406 121.658 50.7406 117.057V17.0862C50.7406 7.64975 58.602 0 68.2994 0C79.8434 0 88.2465 10.6541 85.2609 21.5051Z" fill="black"/>
<path d="M133.281 70.8132L70.99 128.911C67.7367 131.945 62.7358 128.057 64.9461 124.212L107.266 50.5868C112.325 41.7852 124.09 39.4677 132.136 45.6877C140.213 51.9306 140.756 63.8421 133.281 70.8132Z" fill="black"/>
<path d="M125.394 144.413L78.1226 144.413C73.9464 144.413 72.6173 138.602 76.3527 136.675L118.633 114.856C128.684 109.669 140.511 117.212 140.511 128.811C140.511 137.427 133.743 144.413 125.394 144.413Z" fill="black"/>
<path fill-rule="evenodd" clip-rule="evenodd" d="M13.6616 5.97125e-07C21.2062 2.67342e-07 27.3223 6.11607 27.3223 13.6606L27.3223 181.491C27.3223 189.036 21.2062 195.152 13.6616 195.152C6.11709 195.152 0.00101773 189.036 0.0010174 181.491L0.00101006 13.6606C0.00100973 6.11607 6.11708 9.26908e-07 13.6616 5.97125e-07Z" fill="black"/>
<path fill-rule="evenodd" clip-rule="evenodd" d="M140.509 181.491C140.509 189.036 134.393 195.152 126.849 195.152L13.6606 195.152C6.11608 195.152 2.86102e-06 189.036 2.86102e-06 181.491C2.86102e-06 173.947 6.11608 167.831 13.6606 167.831H126.849C134.393 167.831 140.509 173.947 140.509 181.491Z" fill="black"/>
</svg>
