<svg width="1118" height="196" viewBox="0 0 1118 196" fill="none" xmlns="http://www.w3.org/2000/svg">
<path d="M243.958 144V45.249H255.916V133.392H301.82V144H243.958ZM318.793 144V69.9367H330.172V144H318.793ZM324.579 57.5928C322.361 57.5928 320.448 56.8374 318.841 55.3266C317.266 53.8157 316.478 51.9995 316.478 49.8779C316.478 47.7563 317.266 45.9401 318.841 44.4292C320.448 42.9184 322.361 42.163 324.579 42.163C326.797 42.163 328.694 42.9184 330.269 44.4292C331.876 45.9401 332.68 47.7563 332.68 49.8779C332.68 51.9995 331.876 53.8157 330.269 55.3266C328.694 56.8374 326.797 57.5928 324.579 57.5928ZM380.91 173.317C375.413 173.317 370.688 172.61 366.734 171.195C362.78 169.813 359.485 167.981 356.849 165.698C354.245 163.448 352.172 161.037 350.629 158.465L359.694 152.101C360.723 153.451 362.025 154.994 363.6 156.73C365.175 158.498 367.329 160.025 370.061 161.31C372.826 162.628 376.442 163.287 380.91 163.287C386.889 163.287 391.824 161.841 395.713 158.948C399.603 156.055 401.548 151.522 401.548 145.35V130.306H400.583C399.747 131.656 398.558 133.328 397.015 135.321C395.504 137.282 393.318 139.034 390.457 140.577C387.629 142.087 383.803 142.843 378.981 142.843C373.002 142.843 367.634 141.428 362.876 138.6C358.151 135.771 354.406 131.656 351.642 126.256C348.909 120.855 347.543 114.298 347.543 106.583C347.543 98.9963 348.877 92.3904 351.545 86.7649C354.213 81.1073 357.926 76.7355 362.684 73.6495C367.441 70.5314 372.938 68.9724 379.174 68.9724C383.996 68.9724 387.821 69.776 390.65 71.3833C393.511 72.9584 395.697 74.7585 397.208 76.7837C398.751 78.7767 399.94 80.4162 400.776 81.702H401.933V69.9367H412.927V146.122C412.927 152.486 411.481 157.662 408.587 161.648C405.726 165.666 401.869 168.607 397.015 170.472C392.193 172.368 386.825 173.317 380.91 173.317ZM380.524 132.62C385.089 132.62 388.946 131.576 392.097 129.486C395.247 127.397 397.642 124.391 399.281 120.469C400.921 116.548 401.74 111.854 401.74 106.39C401.74 101.054 400.937 96.3443 399.329 92.2618C397.722 88.1793 395.343 84.9808 392.193 82.6663C389.043 80.3519 385.153 79.1946 380.524 79.1946C375.703 79.1946 371.684 80.4162 368.47 82.8592C365.287 85.3023 362.893 88.5811 361.285 92.6957C359.71 96.8104 358.923 101.375 358.923 106.39C358.923 111.533 359.726 116.082 361.333 120.036C362.973 123.957 365.384 127.043 368.566 129.293C371.781 131.511 375.767 132.62 380.524 132.62ZM445.137 99.4463V144H433.757V45.249H445.137V81.5091H446.101C447.837 77.6838 450.441 74.646 453.913 72.3959C457.416 70.1135 462.078 68.9724 467.896 68.9724C472.943 68.9724 477.363 69.9849 481.156 72.0101C484.949 74.0031 487.89 77.073 489.98 81.2198C492.101 85.3344 493.162 90.5741 493.162 96.939V144H481.783V97.7104C481.783 91.8278 480.256 87.2792 477.202 84.0647C474.18 80.818 469.985 79.1946 464.617 79.1946C460.888 79.1946 457.545 79.9822 454.588 81.5573C451.662 83.1325 449.348 85.4309 447.644 88.4525C445.973 91.4742 445.137 95.1388 445.137 99.4463ZM546.19 69.9367V79.5804H507.809V69.9367H546.19ZM518.995 52.1924H530.375V122.784C530.375 125.999 530.841 128.409 531.773 130.017C532.737 131.592 533.959 132.653 535.438 133.199C536.948 133.713 538.54 133.971 540.211 133.971C541.465 133.971 542.494 133.906 543.297 133.778C544.101 133.617 544.744 133.488 545.226 133.392L547.54 143.614C546.769 143.904 545.692 144.193 544.31 144.482C542.928 144.804 541.176 144.964 539.054 144.964C535.839 144.964 532.689 144.273 529.603 142.891C526.549 141.509 524.01 139.403 521.985 136.574C519.992 133.746 518.995 130.177 518.995 125.87V52.1924ZM604.197 144V45.249H636.069C643.077 45.249 648.927 46.5991 653.621 49.2993C658.346 51.9674 661.898 55.5998 664.277 60.1966C666.688 64.7934 667.893 69.9689 667.893 75.7229C667.893 81.477 666.704 86.6685 664.325 91.2974C661.946 95.8942 658.41 99.5427 653.717 102.243C649.024 104.911 643.189 106.245 636.214 106.245H611.14V98.1444H635.973C641.148 98.1444 645.44 97.18 648.847 95.2513C652.254 93.2904 654.794 90.6224 656.466 87.2471C658.169 83.8718 659.021 80.0304 659.021 75.7229C659.021 71.4154 658.169 67.574 656.466 64.1987C654.794 60.8235 652.238 58.1715 648.799 56.2427C645.391 54.314 641.068 53.3496 635.828 53.3496H613.214V144H604.197ZM687.277 144V69.9367H695.619V81.3162H696.246C697.724 77.5873 700.296 74.5817 703.961 72.2994C707.657 69.9849 711.836 68.8277 716.497 68.8277C717.205 68.8277 717.992 68.8438 718.86 68.8759C719.728 68.9081 720.451 68.9402 721.03 68.9724V77.6999C720.644 77.6356 719.969 77.5391 719.005 77.4106C718.04 77.282 716.996 77.2177 715.87 77.2177C712.013 77.2177 708.573 78.0374 705.552 79.6768C702.562 81.2841 700.2 83.5182 698.464 86.3791C696.728 89.2401 695.86 92.5029 695.86 96.1675V144H687.277ZM762.208 145.543C755.811 145.543 750.154 143.92 745.235 140.673C740.349 137.426 736.524 132.942 733.759 127.22C730.995 121.466 729.613 114.828 729.613 107.306C729.613 99.7195 730.995 93.0493 733.759 87.2953C736.524 81.5091 740.349 77.0087 745.235 73.7942C750.154 70.5475 755.811 68.9241 762.208 68.9241C768.605 68.9241 774.247 70.5475 779.133 73.7942C784.019 77.0409 787.844 81.5412 790.609 87.2953C793.405 93.0493 794.804 99.7195 794.804 107.306C794.804 114.828 793.422 121.466 790.657 127.22C787.893 132.942 784.051 137.426 779.133 140.673C774.247 143.92 768.605 145.543 762.208 145.543ZM762.208 137.683C767.352 137.683 771.707 136.301 775.275 133.537C778.844 130.772 781.544 127.091 783.376 122.495C785.241 117.898 786.173 112.835 786.173 107.306C786.173 101.777 785.241 96.6979 783.376 92.0689C781.544 87.44 778.844 83.7271 775.275 80.9305C771.707 78.1338 767.352 76.7355 762.208 76.7355C757.097 76.7355 752.741 78.1338 749.141 80.9305C745.573 83.7271 742.857 87.44 740.992 92.0689C739.16 96.6979 738.244 101.777 738.244 107.306C738.244 112.835 739.16 117.898 740.992 122.495C742.857 127.091 745.573 130.772 749.141 133.537C752.709 136.301 757.065 137.683 762.208 137.683ZM842.817 69.9367V77.4106H807.473V69.9367H842.817ZM818.515 52.1924H827.146V124.664C827.146 127.75 827.677 130.177 828.737 131.945C829.798 133.681 831.18 134.919 832.884 135.658C834.588 136.365 836.404 136.719 838.333 136.719C839.458 136.719 840.422 136.655 841.226 136.526C842.03 136.365 842.737 136.205 843.348 136.044L845.18 143.807C844.344 144.129 843.315 144.418 842.094 144.675C840.872 144.964 839.361 145.109 837.561 145.109C834.411 145.109 831.373 144.418 828.448 143.036C825.555 141.653 823.176 139.596 821.312 136.864C819.447 134.131 818.515 130.74 818.515 126.69V52.1924ZM890.3 145.543C883.903 145.543 878.246 143.92 873.327 140.673C868.441 137.426 864.616 132.942 861.851 127.22C859.087 121.466 857.705 114.828 857.705 107.306C857.705 99.7195 859.087 93.0493 861.851 87.2953C864.616 81.5091 868.441 77.0087 873.327 73.7942C878.246 70.5475 883.903 68.9241 890.3 68.9241C896.697 68.9241 902.339 70.5475 907.225 73.7942C912.111 77.0409 915.936 81.5412 918.701 87.2953C921.497 93.0493 922.896 99.7195 922.896 107.306C922.896 114.828 921.513 121.466 918.749 127.22C915.984 132.942 912.143 137.426 907.225 140.673C902.339 143.92 896.697 145.543 890.3 145.543ZM890.3 137.683C895.443 137.683 899.799 136.301 903.367 133.537C906.935 130.772 909.636 127.091 911.468 122.495C913.332 117.898 914.265 112.835 914.265 107.306C914.265 101.777 913.332 96.6979 911.468 92.0689C909.636 87.44 906.935 83.7271 903.367 80.9305C899.799 78.1338 895.443 76.7355 890.3 76.7355C885.189 76.7355 880.833 78.1338 877.233 80.9305C873.665 83.7271 870.949 87.44 869.084 92.0689C867.252 96.6979 866.336 101.777 866.336 107.306C866.336 112.835 867.252 117.898 869.084 122.495C870.949 127.091 873.665 130.772 877.233 133.537C880.801 136.301 885.157 137.683 890.3 137.683ZM970.668 145.543C964.046 145.543 958.276 143.887 953.358 140.577C948.471 137.266 944.678 132.733 941.978 126.979C939.278 121.225 937.928 114.667 937.928 107.306C937.928 99.8803 939.294 93.2744 942.026 87.4882C944.791 81.702 948.616 77.1695 953.502 73.8906C958.388 70.5796 964.062 68.9241 970.523 68.9241C975.474 68.9241 979.958 69.8885 983.976 71.8172C987.994 73.7138 991.305 76.398 993.909 79.8697C996.545 83.3093 998.201 87.3274 998.876 91.9243H990.196C989.296 87.7453 987.126 84.1772 983.687 81.2198C980.279 78.2303 975.94 76.7355 970.668 76.7355C965.943 76.7355 961.764 78.0213 958.131 80.593C954.499 83.1325 951.654 86.6845 949.597 91.2492C947.571 95.7817 946.559 101.038 946.559 107.017C946.559 113.028 947.555 118.348 949.548 122.977C951.541 127.574 954.338 131.174 957.938 133.778C961.571 136.382 965.814 137.683 970.668 137.683C973.947 137.683 976.936 137.073 979.637 135.851C982.369 134.597 984.651 132.829 986.484 130.547C988.348 128.265 989.602 125.548 990.245 122.398H998.924C998.281 126.866 996.69 130.852 994.15 134.356C991.643 137.828 988.38 140.56 984.362 142.553C980.376 144.546 975.811 145.543 970.668 145.543ZM1046.11 145.543C1039.71 145.543 1034.05 143.92 1029.13 140.673C1024.25 137.426 1020.42 132.942 1017.66 127.22C1014.89 121.466 1013.51 114.828 1013.51 107.306C1013.51 99.7195 1014.89 93.0493 1017.66 87.2953C1020.42 81.5091 1024.25 77.0087 1029.13 73.7942C1034.05 70.5475 1039.71 68.9241 1046.11 68.9241C1052.5 68.9241 1058.14 70.5475 1063.03 73.7942C1067.92 77.0409 1071.74 81.5412 1074.51 87.2953C1077.3 93.0493 1078.7 99.7195 1078.7 107.306C1078.7 114.828 1077.32 121.466 1074.55 127.22C1071.79 132.942 1067.95 137.426 1063.03 140.673C1058.14 143.92 1052.5 145.543 1046.11 145.543ZM1046.11 137.683C1051.25 137.683 1055.6 136.301 1059.17 133.537C1062.74 130.772 1065.44 127.091 1067.27 122.495C1069.14 117.898 1070.07 112.835 1070.07 107.306C1070.07 101.777 1069.14 96.6979 1067.27 92.0689C1065.44 87.44 1062.74 83.7271 1059.17 80.9305C1055.6 78.1338 1051.25 76.7355 1046.11 76.7355C1040.99 76.7355 1036.64 78.1338 1033.04 80.9305C1029.47 83.7271 1026.75 87.44 1024.89 92.0689C1023.06 96.6979 1022.14 101.777 1022.14 107.306C1022.14 112.835 1023.06 117.898 1024.89 122.495C1026.75 127.091 1029.47 130.772 1033.04 133.537C1036.61 136.301 1040.96 137.683 1046.11 137.683ZM1106.13 45.249V144H1097.54V45.249H1106.13Z" fill="white"/>
<path d="M85.2609 21.5051L58.6905 118.074C57.4675 122.519 50.7406 121.658 50.7406 117.057V17.0862C50.7406 7.64975 58.602 0 68.2994 0C79.8434 0 88.2465 10.6541 85.2609 21.5051Z" fill="white"/>
<path d="M133.281 70.8132L70.99 128.911C67.7367 131.945 62.7358 128.057 64.9461 124.212L107.266 50.5868C112.325 41.7852 124.09 39.4677 132.136 45.6877C140.213 51.9306 140.756 63.8421 133.281 70.8132Z" fill="white"/>
<path d="M125.394 144.413L78.1226 144.413C73.9464 144.413 72.6173 138.602 76.3527 136.675L118.633 114.856C128.684 109.669 140.511 117.212 140.511 128.811C140.511 137.427 133.743 144.413 125.394 144.413Z" fill="white"/>
<path fill-rule="evenodd" clip-rule="evenodd" d="M13.6616 5.97125e-07C21.2062 2.67342e-07 27.3223 6.11607 27.3223 13.6606L27.3223 181.491C27.3223 189.036 21.2062 195.152 13.6616 195.152C6.11709 195.152 0.00101773 189.036 0.0010174 181.491L0.00101006 13.6606C0.00100973 6.11607 6.11708 9.26908e-07 13.6616 5.97125e-07Z" fill="white"/>
<path fill-rule="evenodd" clip-rule="evenodd" d="M140.509 181.491C140.509 189.036 134.393 195.152 126.849 195.152L13.6606 195.152C6.11608 195.152 2.86102e-06 189.036 2.86102e-06 181.491C2.86102e-06 173.947 6.11608 167.831 13.6606 167.831H126.849C134.393 167.831 140.509 173.947 140.509 181.491Z" fill="white"/>
</svg>
